<svg xmlns="http://www.w3.org/2000/svg" viewBox="192 76 68 68" role="img" aria-label="Rotary wheel"><path fill-rule="evenodd" clip-rule="evenodd" fill="#FFFFFF" d="M235.265,82.685c-0.01,0-0.02,0-0.029,0
		c0-0.28,0.019-0.561-0.004-0.838c-0.076-0.904-0.049-1.75-1.267-2.119c-1.274-0.385-1.737,0.362-2.302,1.138
		c-0.474,0.651-0.889,1.354-1.083,2.126c-0.236,0.938-0.875,0.7-1.503,0.692c-0.699-0.009-0.842-0.382-0.877-0.989
		c-0.063-1.126-0.421-2.179-0.872-3.215c-0.324-0.744-0.874-0.811-1.552-0.819c-0.659-0.007-1.127,0.138-1.422,0.814
		c-0.469,1.072-0.854,2.161-0.901,3.33c-0.025,0.63-0.314,0.866-0.88,0.864c-0.544-0.001-1.171,0.352-1.456-0.546
		c-0.352-1.107-0.968-2.09-1.696-3.01c-0.503-0.636-1.043-0.544-1.706-0.369c-0.685,0.18-1.14,0.442-1.232,1.228
		c-0.133,1.118-0.227,2.235,0.024,3.333c0.199,0.871-0.416,0.972-0.948,1.234c-0.549,0.271-0.932,0.249-1.29-0.331
		c-0.485-0.785-1.177-1.402-1.862-2.02c-0.734-0.662-1.403-0.801-2.342-0.267c-0.944,0.537-0.832,1.268-0.702,2.045
		c0.157,0.944,0.359,1.902,0.864,2.725c0.416,0.677-0.022,0.901-0.443,1.224c-0.419,0.321-0.748,0.686-1.297,0.122
		c-0.762-0.783-1.771-1.21-2.74-1.688c-0.762-0.375-1.295-0.173-1.888,0.408c-0.612,0.601-0.727,1.153-0.392,1.914
		c0.405,0.92,0.826,1.846,1.531,2.555c0.647,0.651,0.302,1.061-0.085,1.623s-0.729,0.714-1.362,0.37
		c-0.772-0.42-1.642-0.599-2.505-0.779c-0.926-0.193-1.604-0.155-2.188,0.832c-0.579,0.979-0.205,1.572,0.386,2.204
		c0.572,0.611,1.133,1.27,1.818,1.727c0.663,0.442,0.781,0.802,0.494,1.544c-0.32,0.83-0.818,0.81-1.508,0.664
		c-0.865-0.184-1.738-0.08-2.618-0.019c-1.016,0.071-1.406,0.55-1.682,1.497c-0.295,1.016,0.312,1.379,0.906,1.831
		c0.736,0.559,1.554,0.989,2.417,1.305c0.547,0.2,0.899,0.371,0.727,1.085c-0.149,0.617-0.066,1.267-1,1.281
		c-1.132,0.018-2.183,0.405-3.234,0.81c-0.854,0.327-0.784,1.031-0.821,1.673c-0.036,0.616,0.155,1.133,0.854,1.403
		c1.09,0.422,2.195,0.777,3.356,0.836c1.063,0.053,0.652,0.89,0.857,1.398c0.229,0.571-0.114,0.774-0.592,0.928
		c-1.118,0.359-2.083,0.995-3,1.718c-0.451,0.355-0.563,0.727-0.48,1.338c0.155,1.179,0.773,1.642,1.884,1.674
		c0.96,0.027,1.929,0.136,2.862-0.128c0.755-0.213,0.892,0.305,1.081,0.784c0.183,0.463,0.505,0.908-0.184,1.316
		c-1.008,0.598-1.759,1.487-2.481,2.405c-0.413,0.524-0.335,0.939-0.086,1.515c0.456,1.052,1.218,1.292,2.213,1.046
		c0.85-0.21,1.714-0.42,2.51-0.771c0.657-0.29,1.013-0.264,1.459,0.363c0.436,0.614,0.594,1.018-0.002,1.62
		c-0.617,0.626-1,1.438-1.37,2.239c-0.379,0.819-0.453,1.469,0.313,2.235c0.76,0.759,1.373,0.548,2.127,0.213
		c0.808-0.36,1.609-0.755,2.246-1.36c0.605-0.576,1.016-0.438,1.626,0.009c0.628,0.458,0.679,0.847,0.347,1.492
		c-0.402,0.782-0.589,1.649-0.742,2.518c-0.165,0.935-0.008,1.61,0.96,2.156c0.965,0.545,1.498,0.037,2.092-0.452
		c0.74-0.608,1.461-1.265,1.943-2.104c0.39-0.68,0.826-0.4,1.312-0.198c0.485,0.203,0.921,0.309,0.719,1.076
		c-0.243,0.923-0.144,1.905-0.089,2.866c0.053,0.927,0.384,1.509,1.386,1.78c1.003,0.272,1.498-0.2,1.971-0.891
		c0.52-0.758,1.062-1.519,1.286-2.421c0.184-0.736,0.628-0.795,1.248-0.688c0.606,0.104,1.131,0.131,1.146,1.016
		c0.016,0.908,0.283,1.81,0.626,2.671c0.321,0.809,0.656,1.397,1.769,1.381c1.118-0.017,1.448-0.628,1.735-1.443
		c0.305-0.867,0.618-1.742,0.602-2.676c-0.015-0.797,0.53-0.864,1.102-0.958c0.581-0.097,0.981-0.003,1.163,0.669
		c0.253,0.935,0.807,1.733,1.355,2.521c0.489,0.703,1.041,1.072,2.012,0.817c0.978-0.257,1.285-0.839,1.305-1.709
		c0.02-0.878,0.134-1.787-0.05-2.627c-0.186-0.852,0.048-1.129,0.795-1.482c0.822-0.391,1.101-0.055,1.493,0.534
		c0.535,0.802,1.278,1.416,2.02,2.034c0.611,0.509,1.114,0.553,1.818,0.156c0.8-0.451,1.143-0.949,0.958-1.903
		c-0.175-0.907-0.321-1.824-0.741-2.638c-0.385-0.745-0.261-1.142,0.4-1.682c0.684-0.559,1.029-0.239,1.495,0.165
		c0.702,0.609,1.548,0.974,2.363,1.399c0.836,0.436,1.415,0.316,2.083-0.387c0.571-0.603,0.625-1.102,0.339-1.807
		c-0.395-0.972-0.832-1.928-1.573-2.665c-0.626-0.623-0.231-1.008,0.097-1.531c0.367-0.588,0.742-0.729,1.358-0.391
		c0.813,0.447,1.718,0.646,2.623,0.802c0.748,0.13,1.436,0.234,1.955-0.644c0.529-0.895,0.529-1.563-0.172-2.341
		c-0.646-0.716-1.254-1.477-2.092-1.954c-0.742-0.424-0.418-0.891-0.234-1.418c0.197-0.566,0.474-0.877,1.14-0.687
		c0.898,0.257,1.826,0.187,2.742,0.109c0.865-0.071,1.56-0.271,1.84-1.336c0.275-1.049-0.157-1.586-0.921-2.049
		c-0.715-0.434-1.442-0.854-2.191-1.226c-0.481-0.239-1.119-0.236-0.91-1.091c0.162-0.665,0.139-1.268,1.151-1.271
		c0.982-0.004,1.951-0.35,2.883-0.739c0.703-0.293,1.016-0.682,1.028-1.511c0.015-0.953-0.281-1.479-1.178-1.782
		c-0.949-0.321-1.891-0.709-2.897-0.668c-0.966,0.041-0.79-0.661-0.949-1.192c-0.185-0.616-0.009-0.941,0.627-1.139
		c1.157-0.36,2.163-1.004,3.08-1.802c0.38-0.331,0.439-0.637,0.371-1.14c-0.161-1.195-0.743-1.784-1.962-1.733
		c-0.913,0.038-1.843-0.043-2.737,0.102c-0.805,0.131-0.92-0.36-1.162-0.869c-0.263-0.55-0.228-0.93,0.335-1.29
		c1.021-0.653,1.808-1.553,2.523-2.53c0.448-0.613,0.096-1.047-0.194-1.51c-0.28-0.448-0.423-0.968-1.21-0.914
		c-1.262,0.086-2.461,0.354-3.577,0.899c-0.691,0.338-0.94-0.055-1.243-0.489c-0.284-0.408-0.712-0.74-0.157-1.325
		c0.831-0.876,1.348-1.965,1.798-3.087c0.31-0.773-0.164-1.188-0.601-1.659c-0.407-0.441-0.808-0.678-1.464-0.427
		c-1.134,0.433-2.21,0.959-3.089,1.79c-0.579,0.547-0.924,0.147-1.317-0.172c-0.381-0.309-0.916-0.511-0.512-1.226
		c0.492-0.872,0.67-1.865,0.884-2.845c0.206-0.947,0.013-1.519-0.865-2.059c-0.915-0.562-1.491-0.178-2.124,0.338
		c-0.714,0.582-1.42,1.194-1.881,1.997c-0.367,0.641-0.727,0.607-1.354,0.372c-0.803-0.302-1.194-0.633-0.856-1.543
		C235.313,83.6,235.238,83.124,235.265,82.685z"/><path fill-rule="evenodd" clip-rule="evenodd" fill="#F9A620" d="M235.265,82.685c-0.026,0.439,0.048,0.915-0.098,1.31
		c-0.338,0.91,0.054,1.242,0.856,1.543c0.627,0.235,0.986,0.27,1.354-0.372c0.461-0.803,1.167-1.415,1.881-1.997
		c0.633-0.516,1.209-0.9,2.124-0.338c0.878,0.54,1.071,1.112,0.865,2.059c-0.214,0.98-0.392,1.973-0.884,2.845
		c-0.404,0.715,0.131,0.917,0.512,1.226c0.394,0.319,0.738,0.719,1.317,0.172c0.879-0.831,1.955-1.357,3.089-1.79
		c0.656-0.25,1.057-0.014,1.464,0.427c0.437,0.471,0.91,0.886,0.601,1.659c-0.45,1.122-0.967,2.211-1.798,3.087
		c-0.555,0.584-0.127,0.917,0.157,1.325c0.303,0.434,0.552,0.827,1.243,0.489c1.116-0.545,2.315-0.813,3.577-0.899
		c0.787-0.054,0.93,0.466,1.21,0.914c0.29,0.463,0.643,0.896,0.194,1.51c-0.716,0.978-1.503,1.877-2.523,2.53
		c-0.563,0.359-0.598,0.739-0.335,1.29c0.242,0.509,0.357,1,1.162,0.869c0.895-0.145,1.824-0.064,2.737-0.102
		c1.219-0.05,1.801,0.539,1.962,1.733c0.068,0.502,0.009,0.809-0.371,1.14c-0.917,0.798-1.923,1.441-3.08,1.802
		c-0.636,0.198-0.812,0.523-0.627,1.139c0.159,0.531-0.017,1.232,0.949,1.192c1.007-0.041,1.948,0.347,2.897,0.668
		c0.896,0.303,1.192,0.829,1.178,1.782c-0.013,0.829-0.325,1.218-1.028,1.511c-0.932,0.39-1.9,0.735-2.883,0.739
		c-1.013,0.004-0.989,0.606-1.151,1.271c-0.209,0.854,0.429,0.852,0.91,1.091c0.749,0.372,1.477,0.792,2.191,1.226
		c0.764,0.463,1.196,1,0.921,2.049c-0.28,1.064-0.975,1.265-1.84,1.336c-0.916,0.077-1.844,0.147-2.742-0.109
		c-0.666-0.19-0.942,0.12-1.14,0.687c-0.184,0.527-0.508,0.994,0.234,1.418c0.838,0.478,1.445,1.238,2.092,1.954
		c0.701,0.777,0.701,1.446,0.172,2.341c-0.52,0.878-1.207,0.773-1.955,0.644c-0.905-0.156-1.81-0.354-2.623-0.802
		c-0.616-0.339-0.991-0.197-1.358,0.391c-0.328,0.523-0.723,0.908-0.097,1.531c0.741,0.737,1.179,1.693,1.573,2.665
		c0.286,0.705,0.232,1.204-0.339,1.807c-0.668,0.703-1.247,0.822-2.083,0.387c-0.815-0.426-1.661-0.79-2.363-1.399
		c-0.466-0.404-0.812-0.724-1.495-0.165c-0.661,0.54-0.785,0.937-0.4,1.682c0.42,0.813,0.566,1.73,0.741,2.638
		c0.185,0.954-0.158,1.452-0.958,1.903c-0.704,0.396-1.207,0.353-1.818-0.156c-0.741-0.618-1.484-1.232-2.02-2.034
		c-0.393-0.589-0.671-0.925-1.493-0.534c-0.747,0.354-0.98,0.631-0.795,1.482c0.184,0.84,0.069,1.749,0.05,2.627
		c-0.02,0.87-0.327,1.452-1.305,1.709c-0.971,0.255-1.522-0.114-2.012-0.817c-0.549-0.788-1.103-1.587-1.355-2.521
		c-0.182-0.672-0.582-0.766-1.163-0.669c-0.571,0.094-1.116,0.161-1.102,0.958c0.017,0.934-0.297,1.809-0.602,2.676
		c-0.287,0.815-0.617,1.427-1.735,1.443c-1.112,0.017-1.447-0.572-1.769-1.381c-0.343-0.861-0.61-1.763-0.626-2.671
		c-0.015-0.885-0.539-0.911-1.146-1.016c-0.62-0.106-1.064-0.048-1.248,0.688c-0.225,0.902-0.767,1.663-1.286,2.421
		c-0.473,0.69-0.968,1.163-1.971,0.891c-1.002-0.271-1.333-0.854-1.386-1.78c-0.055-0.961-0.154-1.943,0.089-2.866
		c0.202-0.768-0.233-0.873-0.719-1.076c-0.485-0.202-0.922-0.481-1.312,0.198c-0.482,0.84-1.203,1.496-1.943,2.104
		c-0.594,0.489-1.127,0.997-2.092,0.452c-0.968-0.546-1.125-1.222-0.96-2.156c0.153-0.868,0.34-1.735,0.742-2.518
		c0.332-0.646,0.281-1.034-0.347-1.492c-0.61-0.446-1.021-0.585-1.626-0.009c-0.637,0.605-1.438,1-2.246,1.36
		c-0.754,0.335-1.367,0.546-2.127-0.213c-0.767-0.767-0.692-1.416-0.313-2.235c0.37-0.802,0.753-1.613,1.37-2.239
		c0.596-0.603,0.438-1.006,0.002-1.62c-0.446-0.627-0.802-0.653-1.459-0.363c-0.796,0.351-1.66,0.561-2.51,0.771
		c-0.995,0.246-1.757,0.006-2.213-1.046c-0.249-0.575-0.327-0.99,0.086-1.515c0.723-0.918,1.474-1.808,2.481-2.405
		c0.688-0.408,0.366-0.854,0.184-1.316c-0.189-0.479-0.326-0.997-1.081-0.784c-0.934,0.264-1.902,0.155-2.862,0.128
		c-1.11-0.032-1.729-0.495-1.884-1.674c-0.082-0.611,0.029-0.982,0.48-1.338c0.917-0.723,1.882-1.358,3-1.718
		c0.478-0.153,0.821-0.356,0.592-0.928c-0.205-0.509,0.206-1.346-0.857-1.398c-1.161-0.059-2.267-0.414-3.356-0.836
		c-0.698-0.271-0.89-0.787-0.854-1.403c0.037-0.642-0.032-1.346,0.821-1.673c1.052-0.404,2.103-0.792,3.234-0.81
		c0.934-0.015,0.851-0.665,1-1.281c0.173-0.714-0.18-0.885-0.727-1.085c-0.863-0.316-1.681-0.747-2.417-1.305
		c-0.595-0.452-1.201-0.814-0.906-1.831c0.275-0.946,0.666-1.426,1.682-1.497c0.88-0.061,1.753-0.165,2.618,0.019
		c0.689,0.146,1.188,0.166,1.508-0.664c0.287-0.742,0.169-1.102-0.494-1.544c-0.686-0.457-1.246-1.116-1.818-1.727
		c-0.591-0.632-0.965-1.225-0.386-2.204c0.583-0.986,1.262-1.025,2.188-0.832c0.863,0.18,1.732,0.359,2.505,0.779
		c0.634,0.344,0.976,0.191,1.362-0.37s0.732-0.972,0.085-1.623c-0.705-0.709-1.126-1.634-1.531-2.555
		c-0.335-0.761-0.221-1.313,0.392-1.914c0.593-0.581,1.126-0.783,1.888-0.408c0.97,0.478,1.979,0.905,2.74,1.688
		c0.549,0.563,0.878,0.199,1.297-0.122c0.421-0.323,0.859-0.547,0.443-1.224c-0.505-0.822-0.707-1.78-0.864-2.725
		c-0.13-0.777-0.242-1.508,0.702-2.045c0.938-0.534,1.607-0.395,2.342,0.267c0.686,0.618,1.377,1.235,1.862,2.02
		c0.358,0.58,0.741,0.602,1.29,0.331c0.532-0.262,1.147-0.363,0.948-1.234c-0.251-1.098-0.157-2.215-0.024-3.333
		c0.093-0.785,0.548-1.048,1.232-1.228c0.663-0.175,1.203-0.267,1.706,0.369c0.729,0.92,1.345,1.903,1.696,3.01
		c0.285,0.898,0.912,0.544,1.456,0.546c0.565,0.001,0.854-0.234,0.88-0.864c0.048-1.169,0.433-2.258,0.901-3.33
		c0.295-0.677,0.763-0.822,1.422-0.814c0.678,0.008,1.228,0.075,1.552,0.819c0.451,1.036,0.809,2.089,0.872,3.215
		c0.035,0.607,0.178,0.98,0.877,0.989c0.628,0.008,1.267,0.246,1.503-0.692c0.194-0.772,0.609-1.475,1.083-2.126
		c0.564-0.776,1.027-1.523,2.302-1.138c1.218,0.369,1.19,1.215,1.267,2.119c0.022,0.277,0.004,0.559,0.004,0.838
		C235.245,82.685,235.255,82.685,235.265,82.685z M227.619,134.359c8.276-0.426,15.733-5.023,20.354-14.04
		c1.381-2.693,0.815-2.256-1.244-3.022c-0.262-0.097-0.527-0.184-0.792-0.271c-1.877-0.625-1.878-0.625-2.738,1.154
		c-4.592,9.496-15.886,13.586-25.424,9.176c-4.419-2.043-7.653-5.304-9.61-9.77c-0.413-0.945-0.883-1.21-1.828-0.795
		c-0.727,0.319-1.508,0.517-2.261,0.776c-1.301,0.448-1.363,0.6-0.816,1.904C207.013,128.434,216.002,134.367,227.619,134.359z
		 M250.411,109.789c-0.04-6.103-1.957-11.501-5.998-16.127c-0.69-0.79-1.229-0.875-1.927-0.046
		c-0.513,0.609-1.083,1.183-1.691,1.697c-0.861,0.728-0.84,1.357-0.097,2.197c2.132,2.41,3.519,5.207,4.106,8.387
		c0.417,2.258,0.415,4.517,0.065,6.781c-0.274,1.778-0.212,1.88,1.464,2.365c0.729,0.21,1.474,0.376,2.185,0.635
		c0.801,0.292,1.183,0.048,1.36-0.771C250.243,113.219,250.405,111.516,250.411,109.789z M201.276,109.697
		c-0.015,1.483,0.131,2.953,0.373,4.411c0.31,1.862,0.383,1.894,2.233,1.354c0.421-0.123,0.845-0.236,1.266-0.359
		c1.923-0.559,1.915-0.614,1.645-2.57c-0.682-4.929,0.169-9.521,3.07-13.664c0.601-0.859,1.876-1.511,1.668-2.612
		c-0.201-1.063-1.387-1.692-2.164-2.487c-1.037-1.061-1.216-1.067-2.173,0.028C203.221,98.349,201.364,103.697,201.276,109.697z
		 M225.561,85.121c-0.597,0.051-1.673,0.114-2.742,0.239c-4.515,0.529-8.521,2.297-12.13,5.022c-0.648,0.489-0.72,0.995-0.159,1.598
		c0.599,0.644,1.225,1.269,1.754,1.967c0.64,0.843,1.198,0.896,2.091,0.269c7.256-5.1,15.666-5.093,22.894,0.007
		c0.884,0.624,1.454,0.569,2.087-0.292c0.494-0.673,1.093-1.274,1.684-1.869c0.692-0.696,0.528-1.207-0.205-1.754
		C236.441,87.033,231.53,85.267,225.561,85.121z M243.368,109.74c0.019-1.813-0.304-3.578-0.771-5.319
		c-0.337-1.258-0.541-1.339-1.603-0.625c-2.454,1.649-4.899,3.31-7.338,4.981c-0.942,0.646-0.959,1.195-0.033,1.834
		c2.499,1.725,5.026,3.409,7.521,5.142c0.843,0.586,1.188,0.278,1.413-0.581C243.023,113.39,243.356,111.59,243.368,109.74z
		 M228.278,93.48c0.22,3.028,0.43,6.057,0.664,9.084c0.085,1.1,0.536,1.33,1.635,0.808c2.705-1.286,5.388-2.619,8.099-3.892
		c0.89-0.417,0.911-0.806,0.252-1.49c-2.651-2.749-5.802-4.586-9.517-5.507C228.377,92.228,228.184,92.616,228.278,93.48z
		 M209.823,103.383c-0.538,0.058-0.601,0.459-0.697,0.785c-1.1,3.736-1.11,7.474-0.007,11.214c0.235,0.797,0.644,0.917,1.314,0.458
		c2.537-1.737,5.092-3.448,7.619-5.199c0.888-0.615,0.877-1.13-0.031-1.757c-2.529-1.748-5.08-3.464-7.626-5.188
		C210.201,103.564,209.982,103.469,209.823,103.383z M228.3,125.729c-0.104,1.266,0.084,1.438,1.32,1.129
		c3.659-0.913,6.764-2.774,9.382-5.483c0.654-0.677,0.479-1.063-0.276-1.425c-2.731-1.312-5.449-2.65-8.188-3.945
		c-1.097-0.519-1.499-0.237-1.592,1.012C228.727,119.92,228.515,122.824,228.3,125.729z M223.351,93.539
		c0.162-1.001-0.361-1.18-1.196-0.969c-3.737,0.943-6.926,2.814-9.581,5.611c-0.541,0.569-0.463,0.949,0.214,1.278
		c2.763,1.344,5.516,2.709,8.291,4.027c1.098,0.521,1.55,0.219,1.638-0.99C222.933,99.51,223.14,96.524,223.351,93.539z
		 M223.423,124.692c-0.168-2.134-0.354-4.882-0.611-7.623c-0.123-1.313-0.518-1.502-1.722-0.922
		c-2.625,1.266-5.241,2.549-7.854,3.839c-1.112,0.55-1.143,0.75-0.302,1.624c2.405,2.503,5.272,4.241,8.617,5.19
		C223.551,127.368,223.549,127.375,223.423,124.692z M231.888,109.772c-0.011-3.455-2.724-6.167-6.147-6.148
		c-3.29,0.018-6.077,2.82-6.109,6.143c-0.033,3.354,2.798,6.136,6.225,6.117C229.238,115.866,231.899,113.169,231.888,109.772z"/></svg>