<?xml version="1.0" encoding="utf-8"?>
<!-- Generator: Adobe Illustrator 16.0.0, SVG Export Plug-In . SVG Version: 6.00 Build 0)  -->
<!DOCTYPE svg PUBLIC "-//W3C//DTD SVG 1.1//EN" "http://www.w3.org/Graphics/SVG/1.1/DTD/svg11.dtd">
<svg version="1.1" id="Layer_1" xmlns="http://www.w3.org/2000/svg" xmlns:xlink="http://www.w3.org/1999/xlink" x="0px" y="0px"
	 viewBox="24 71 238 76" enable-background="new 0 0 288 216" xml:space="preserve">
<g>
	<path fill-rule="evenodd" clip-rule="evenodd" fill="#FFFFFF" d="M143.52,146.08c-39.399,0-78.799-0.004-118.2,0.022
		c-0.9,0.001-1.104-0.202-1.103-1.103c0.028-24.6,0.028-49.2,0-73.8c0-0.822,0.162-0.983,0.983-0.983
		c78.96,0.024,157.92,0.024,236.88,0c0.821,0,0.983,0.161,0.982,0.983c-0.027,24.64-0.027,49.279,0,73.92
		c0.001,0.821-0.161,0.983-0.982,0.982C222.56,146.077,183.04,146.08,143.52,146.08z M235.265,82.685c-0.01,0-0.02,0-0.029,0
		c0-0.28,0.019-0.561-0.004-0.838c-0.076-0.904-0.049-1.75-1.267-2.119c-1.274-0.385-1.737,0.362-2.302,1.138
		c-0.474,0.651-0.889,1.354-1.083,2.126c-0.236,0.938-0.875,0.7-1.503,0.692c-0.699-0.009-0.842-0.382-0.877-0.989
		c-0.063-1.126-0.421-2.179-0.872-3.215c-0.324-0.744-0.874-0.811-1.552-0.819c-0.659-0.007-1.127,0.138-1.422,0.814
		c-0.469,1.072-0.854,2.161-0.901,3.33c-0.025,0.63-0.314,0.866-0.88,0.864c-0.544-0.001-1.171,0.352-1.456-0.546
		c-0.352-1.107-0.968-2.09-1.696-3.01c-0.503-0.636-1.043-0.544-1.706-0.369c-0.685,0.18-1.14,0.442-1.232,1.228
		c-0.133,1.118-0.227,2.235,0.024,3.333c0.199,0.871-0.416,0.972-0.948,1.234c-0.549,0.271-0.932,0.249-1.29-0.331
		c-0.485-0.785-1.177-1.402-1.862-2.02c-0.734-0.662-1.403-0.801-2.342-0.267c-0.944,0.537-0.832,1.268-0.702,2.045
		c0.157,0.944,0.359,1.902,0.864,2.725c0.416,0.677-0.022,0.901-0.443,1.224c-0.419,0.321-0.748,0.686-1.297,0.122
		c-0.762-0.783-1.771-1.21-2.74-1.688c-0.762-0.375-1.295-0.173-1.888,0.408c-0.612,0.601-0.727,1.153-0.392,1.914
		c0.405,0.92,0.826,1.846,1.531,2.555c0.647,0.651,0.302,1.061-0.085,1.623s-0.729,0.714-1.362,0.37
		c-0.772-0.42-1.642-0.599-2.505-0.779c-0.926-0.193-1.604-0.155-2.188,0.832c-0.579,0.979-0.205,1.572,0.386,2.204
		c0.572,0.611,1.133,1.27,1.818,1.727c0.663,0.442,0.781,0.802,0.494,1.544c-0.32,0.83-0.818,0.81-1.508,0.664
		c-0.865-0.184-1.738-0.08-2.618-0.019c-1.016,0.071-1.406,0.55-1.682,1.497c-0.295,1.016,0.312,1.379,0.906,1.831
		c0.736,0.559,1.554,0.989,2.417,1.305c0.547,0.2,0.899,0.371,0.727,1.085c-0.149,0.617-0.066,1.267-1,1.281
		c-1.132,0.018-2.183,0.405-3.234,0.81c-0.854,0.327-0.784,1.031-0.821,1.673c-0.036,0.616,0.155,1.133,0.854,1.403
		c1.09,0.422,2.195,0.777,3.356,0.836c1.063,0.053,0.652,0.89,0.857,1.398c0.229,0.571-0.114,0.774-0.592,0.928
		c-1.118,0.359-2.083,0.995-3,1.718c-0.451,0.355-0.563,0.727-0.48,1.338c0.155,1.179,0.773,1.642,1.884,1.674
		c0.96,0.027,1.929,0.136,2.862-0.128c0.755-0.213,0.892,0.305,1.081,0.784c0.183,0.463,0.505,0.908-0.184,1.316
		c-1.008,0.598-1.759,1.487-2.481,2.405c-0.413,0.524-0.335,0.939-0.086,1.515c0.456,1.052,1.218,1.292,2.213,1.046
		c0.85-0.21,1.714-0.42,2.51-0.771c0.657-0.29,1.013-0.264,1.459,0.363c0.436,0.614,0.594,1.018-0.002,1.62
		c-0.617,0.626-1,1.438-1.37,2.239c-0.379,0.819-0.453,1.469,0.313,2.235c0.76,0.759,1.373,0.548,2.127,0.213
		c0.808-0.36,1.609-0.755,2.246-1.36c0.605-0.576,1.016-0.438,1.626,0.009c0.628,0.458,0.679,0.847,0.347,1.492
		c-0.402,0.782-0.589,1.649-0.742,2.518c-0.165,0.935-0.008,1.61,0.96,2.156c0.965,0.545,1.498,0.037,2.092-0.452
		c0.74-0.608,1.461-1.265,1.943-2.104c0.39-0.68,0.826-0.4,1.312-0.198c0.485,0.203,0.921,0.309,0.719,1.076
		c-0.243,0.923-0.144,1.905-0.089,2.866c0.053,0.927,0.384,1.509,1.386,1.78c1.003,0.272,1.498-0.2,1.971-0.891
		c0.52-0.758,1.062-1.519,1.286-2.421c0.184-0.736,0.628-0.795,1.248-0.688c0.606,0.104,1.131,0.131,1.146,1.016
		c0.016,0.908,0.283,1.81,0.626,2.671c0.321,0.809,0.656,1.397,1.769,1.381c1.118-0.017,1.448-0.628,1.735-1.443
		c0.305-0.867,0.618-1.742,0.602-2.676c-0.015-0.797,0.53-0.864,1.102-0.958c0.581-0.097,0.981-0.003,1.163,0.669
		c0.253,0.935,0.807,1.733,1.355,2.521c0.489,0.703,1.041,1.072,2.012,0.817c0.978-0.257,1.285-0.839,1.305-1.709
		c0.02-0.878,0.134-1.787-0.05-2.627c-0.186-0.852,0.048-1.129,0.795-1.482c0.822-0.391,1.101-0.055,1.493,0.534
		c0.535,0.802,1.278,1.416,2.02,2.034c0.611,0.509,1.114,0.553,1.818,0.156c0.8-0.451,1.143-0.949,0.958-1.903
		c-0.175-0.907-0.321-1.824-0.741-2.638c-0.385-0.745-0.261-1.142,0.4-1.682c0.684-0.559,1.029-0.239,1.495,0.165
		c0.702,0.609,1.548,0.974,2.363,1.399c0.836,0.436,1.415,0.316,2.083-0.387c0.571-0.603,0.625-1.102,0.339-1.807
		c-0.395-0.972-0.832-1.928-1.573-2.665c-0.626-0.623-0.231-1.008,0.097-1.531c0.367-0.588,0.742-0.729,1.358-0.391
		c0.813,0.447,1.718,0.646,2.623,0.802c0.748,0.13,1.436,0.234,1.955-0.644c0.529-0.895,0.529-1.563-0.172-2.341
		c-0.646-0.716-1.254-1.477-2.092-1.954c-0.742-0.424-0.418-0.891-0.234-1.418c0.197-0.566,0.474-0.877,1.14-0.687
		c0.898,0.257,1.826,0.187,2.742,0.109c0.865-0.071,1.56-0.271,1.84-1.336c0.275-1.049-0.157-1.586-0.921-2.049
		c-0.715-0.434-1.442-0.854-2.191-1.226c-0.481-0.239-1.119-0.236-0.91-1.091c0.162-0.665,0.139-1.268,1.151-1.271
		c0.982-0.004,1.951-0.35,2.883-0.739c0.703-0.293,1.016-0.682,1.028-1.511c0.015-0.953-0.281-1.479-1.178-1.782
		c-0.949-0.321-1.891-0.709-2.897-0.668c-0.966,0.041-0.79-0.661-0.949-1.192c-0.185-0.616-0.009-0.941,0.627-1.139
		c1.157-0.36,2.163-1.004,3.08-1.802c0.38-0.331,0.439-0.637,0.371-1.14c-0.161-1.195-0.743-1.784-1.962-1.733
		c-0.913,0.038-1.843-0.043-2.737,0.102c-0.805,0.131-0.92-0.36-1.162-0.869c-0.263-0.55-0.228-0.93,0.335-1.29
		c1.021-0.653,1.808-1.553,2.523-2.53c0.448-0.613,0.096-1.047-0.194-1.51c-0.28-0.448-0.423-0.968-1.21-0.914
		c-1.262,0.086-2.461,0.354-3.577,0.899c-0.691,0.338-0.94-0.055-1.243-0.489c-0.284-0.408-0.712-0.74-0.157-1.325
		c0.831-0.876,1.348-1.965,1.798-3.087c0.31-0.773-0.164-1.188-0.601-1.659c-0.407-0.441-0.808-0.678-1.464-0.427
		c-1.134,0.433-2.21,0.959-3.089,1.79c-0.579,0.547-0.924,0.147-1.317-0.172c-0.381-0.309-0.916-0.511-0.512-1.226
		c0.492-0.872,0.67-1.865,0.884-2.845c0.206-0.947,0.013-1.519-0.865-2.059c-0.915-0.562-1.491-0.178-2.124,0.338
		c-0.714,0.582-1.42,1.194-1.881,1.997c-0.367,0.641-0.727,0.607-1.354,0.372c-0.803-0.302-1.194-0.633-0.856-1.543
		C235.313,83.6,235.238,83.124,235.265,82.685z M89.278,119.853c0,3.039-0.01,6.078,0.002,9.117
		c0.013,3.396-0.362,2.839,2.945,2.929c1.035,0.028,1.312-0.392,1.296-1.346c-0.041-2.438,0.017-4.878-0.031-7.316
		c-0.015-0.758,0.195-0.972,0.944-0.879c0.948,0.117,1.913,0.17,2.868,0.146c0.634-0.016,0.905,0.238,1.139,0.787
		c0.86,2.021,1.949,3.963,2.611,6.043c0.696,2.188,1.941,2.884,4.131,2.583c1.444-0.199,1.622-0.285,1.011-1.678
		c-1.185-2.702-2.375-5.402-3.591-8.092c-0.259-0.573-0.334-0.891,0.34-1.306c2.922-1.799,3.957-4.478,3.191-7.936
		c-0.677-3.062-2.655-4.801-6.046-5.252c-3.196-0.425-6.375-0.024-9.561,0.209c-1.002,0.073-1.274,0.496-1.265,1.434
		C89.3,112.815,89.278,116.334,89.278,119.853z M177.51,127.689c-0.1-0.003-0.199-0.006-0.3-0.009
		c-0.976-3.652-1.941-7.308-2.932-10.956c-0.796-2.937-0.111-2.48-3.397-2.528c-0.039,0-0.08,0-0.12,0.001
		c-0.768,0.017-1.104,0.356-0.897,1.148c1.283,4.902,2.553,9.808,3.845,14.708c0.24,0.908,0.819,1.715,1.76,1.756
		c1.538,0.068,0.929,0.873,0.623,1.515c-0.361,0.756-1.088,1.044-1.897,1.023c-0.996-0.024-1.99-0.123-2.986-0.161
		c-0.551-0.021-1.287-0.108-1.253,0.698c0.036,0.836-0.537,2.072,0.666,2.404c1.76,0.486,3.607,0.846,5.445,0.503
		c2.583-0.482,3.565-2.508,4.166-4.748c1.426-5.32,2.795-10.656,4.187-15.985c0.771-2.96,0.771-2.934-2.292-2.878
		c-0.796,0.015-1.152,0.333-1.32,1.063c-0.242,1.049-0.541,2.085-0.817,3.127C179.163,121.478,178.336,124.583,177.51,127.689z
		 M153.841,125.011c0-1.919,0-3.838-0.001-5.757c0-0.08-0.005-0.16-0.009-0.24c-0.158-3.175-1.848-4.878-5.009-5.15
		c-2.051-0.176-4.063,0.123-6.077,0.385c-2.228,0.289-2.177,0.331-2.039,2.65c0.058,0.968,0.442,1.227,1.348,1.157
		c1.83-0.139,3.666-0.246,5.5-0.278c1.521-0.027,2.152,0.714,2.224,2.197c0.037,0.76-0.235,0.904-0.928,0.962
		c-1.905,0.159-3.831,0.16-5.701,0.648c-2.197,0.573-3.235,1.726-3.569,3.973c-0.131,0.88-0.069,1.75,0.092,2.62
		c0.454,2.453,1.876,3.76,4.354,4.031c1.128,0.123,2.24,0.021,3.318-0.272c1.715-0.465,3.337-0.942,5.113,0.043
		c1.017,0.563,1.377,0.151,1.382-1.093C153.847,128.928,153.842,126.97,153.841,125.011z M108.957,123.015c0.004,0,0.009,0,0.014,0
		c0,0.718-0.048,1.439,0.008,2.153c0.303,3.864,2.175,6.239,5.507,6.897c1.653,0.326,3.328,0.299,4.988-0.079
		c2.396-0.545,3.927-2.005,4.662-4.33c0.724-2.29,0.808-4.637,0.484-6.989c-0.627-4.555-2.507-6.49-7.022-6.816
		c-5.153-0.373-8.195,1.735-8.634,7.254C108.914,121.737,108.957,122.378,108.957,123.015z M128.637,123.219
		c0.04,1.723-0.119,3.646,0.251,5.546c0.321,1.65,1.101,2.918,2.851,3.326c1.708,0.398,3.409,0.212,5.104-0.137
		c0.459-0.095,0.671-0.332,0.726-0.801c0.289-2.454,0.007-2.79-2.399-2.796c-0.08,0-0.16,0-0.24,0
		c-1.722-0.008-2.099-0.321-2.159-2.086c-0.068-1.996-0.043-3.995-0.048-5.993c-0.006-2.315,0-2.315,2.268-2.316
		c2.68-0.001,2.678-0.021,2.544-2.654c-0.042-0.831-0.413-1.137-1.197-1.115c-0.799,0.022-1.606-0.063-2.396,0.024
		c-0.996,0.11-1.271-0.216-1.249-1.227c0.07-3.147,0.469-3.142-3.049-2.275c-0.782,0.193-1.083,0.561-1.013,1.325
		c0.029,0.317-0.025,0.643,0.011,0.958c0.096,0.843-0.065,1.374-1.11,1.215c-0.831-0.127-1.15,0.355-1.103,1.15
		c0.023,0.397,0.037,0.802-0.003,1.197c-0.107,1.04,0.34,1.521,1.376,1.394c0.71-0.087,0.867,0.226,0.847,0.878
		C128.607,120.229,128.637,121.629,128.637,123.219z M162.274,115.856c0.279-1.522-0.495-1.794-1.637-1.662
		c-0.276,0.031-0.56,0.004-0.839,0.005c-1.527,0.003-1.599,0.072-1.6,1.644c-0.002,4.438-0.007,8.875,0.001,13.312
		c0.005,3.126-0.316,2.663,2.765,2.747c1.094,0.03,1.359-0.402,1.34-1.411c-0.054-2.678-0.019-5.356-0.019-8.035
		c0.001-2.784,0.396-3.329,3.095-4.214c0.378-0.124,0.769-0.245,1.161-0.275c0.871-0.067,1.179-0.545,1.127-1.358
		c-0.02-0.318-0.001-0.64-0.002-0.959c-0.005-1.519-0.317-1.77-1.796-1.423C164.622,114.518,163.53,115.187,162.274,115.856z
		 M103.063,87.483c-3.011-0.345-4.075,2.644-6.392,3.656c0-2.867-0.01-5.624,0.009-8.38c0.004-0.543-0.125-0.775-0.728-0.787
		c-0.648-0.012-0.7,0.296-0.686,0.801c0.025,0.918,0.007,1.838,0.007,2.758c0,3.717,0.006,7.434-0.007,11.151
		c-0.002,0.568-0.026,0.992,0.781,0.948c0.704-0.038,0.623-0.448,0.623-0.886c0-1.398,0-2.797,0-4.114
		c1.52,1.417,3.047,2.662,4.34,4.116c0.763,0.857,1.496,0.974,2.676,0.754c-1.69-1.675-3.218-3.296-4.868-4.781
		c-0.893-0.804-0.693-1.23,0.129-1.86C100.355,89.78,101.695,88.613,103.063,87.483z M183.926,95.961
		c-0.339,0.131-0.627,0.261-0.927,0.354c-2.937,0.913-5.098-0.149-5.739-2.677c-0.236-0.93,0.145-0.898,0.788-0.893
		c1.917,0.017,3.836,0.009,5.754,0.001c0.417-0.001,0.862,0.12,0.962-0.569c0.244-1.678-0.794-3.962-2.222-4.716
		c-1.637-0.865-3.844-0.515-5.197,0.824c-1.726,1.707-2.142,4.919-0.92,7.091c1.172,2.083,3.579,2.955,6.242,2.306
		C183.543,97.469,184.345,97.277,183.926,95.961z M32.639,90.528c0,2.077,0.014,4.154-0.009,6.231
		c-0.006,0.558,0.05,0.873,0.751,0.857c1.996-0.046,3.994-0.025,5.992-0.01c0.464,0.004,0.729-0.049,0.727-0.632
		c-0.003-0.634-0.372-0.578-0.778-0.577c-1.478,0.003-2.957-0.025-4.434,0.013c-0.609,0.016-0.845-0.133-0.821-0.789
		c0.05-1.356,0.036-2.716,0.004-4.074c-0.012-0.528,0.163-0.69,0.684-0.678c1.317,0.031,2.636,0.005,3.955,0.012
		c0.46,0.003,0.867,0.041,0.847-0.649c-0.019-0.649-0.43-0.551-0.818-0.552c-1.278-0.004-2.557-0.027-3.834,0.009
		c-0.586,0.017-0.868-0.097-0.836-0.772c0.054-1.156,0.046-2.318,0.002-3.475c-0.023-0.614,0.141-0.839,0.792-0.816
		c1.396,0.049,2.796,0.024,4.194,0.008c0.432-0.005,0.998,0.205,0.979-0.625c-0.017-0.748-0.522-0.563-0.919-0.565
		c-1.877-0.012-3.756,0.024-5.632-0.021c-0.688-0.017-0.871,0.204-0.858,0.873C32.665,86.373,32.639,88.451,32.639,90.528z
		 M112.696,96.041c-0.677,0.183-1.349,0.409-2.039,0.542c-2.061,0.399-4.057-0.803-4.541-2.702c-0.186-0.73-0.142-1.189,0.856-1.151
		c1.913,0.074,3.831,0.026,5.746,0.016c0.329-0.001,0.693,0.121,0.816-0.43c0.356-1.6-0.614-3.942-2.047-4.799
		c-1.42-0.849-3.729-0.557-5.041,0.517c-2.256,1.847-2.173,5.517-1.177,7.367c1.13,2.098,3.644,2.935,6.352,2.255
		C112.545,97.424,113.108,97.109,112.696,96.041z M127.766,84.848c0.402-0.985,0.271-1.557-0.887-1.737
		c-0.959-0.15-1.909-0.233-2.853-0.088c-2.508,0.384-3.965,2.788-3.083,5.038c0.486,1.243,1.596,1.822,2.673,2.427
		c0.931,0.523,1.971,0.863,2.764,1.617c0.687,0.653,0.966,1.478,0.761,2.385c-0.215,0.95-0.835,1.6-1.788,1.914
		c-1.235,0.409-2.419,0.185-3.617-0.186c-0.277-0.086-0.698-0.719-0.937,0.006c-0.18,0.543-0.187,1.099,0.582,1.303
		c1.25,0.331,2.52,0.459,3.786,0.247c2.252-0.377,3.646-2.162,3.47-4.41c-0.126-1.614-1.249-2.499-2.534-3.227
		c-1-0.567-2.083-0.982-2.994-1.714c-0.717-0.576-1.071-1.303-0.904-2.195c0.183-0.975,0.799-1.579,1.775-1.879
		C125.327,83.932,126.549,84.314,127.766,84.848z M90.531,96.007c0,0.533,0.01,0.807-0.002,1.081
		c-0.024,0.554,0.358,0.501,0.726,0.523c0.469,0.028,0.687-0.172,0.612-0.629c-0.363-2.222-0.042-4.464-0.207-6.688
		c-0.111-1.51-0.839-2.689-2.392-3.089c-1.555-0.4-3.087-0.247-4.489,0.602c-0.366,0.222-0.325,0.641-0.149,0.97
		c0.216,0.405,0.464,0.043,0.694-0.037c0.867-0.301,1.748-0.553,2.675-0.485c1.334,0.097,2.166,0.857,2.292,2.005
		c0.083,0.748-0.026,1.194-0.976,1.112c-1.398-0.12-2.78,0.039-4.072,0.672c-1.251,0.613-1.831,1.608-1.729,2.997
		c0.096,1.301,0.832,2.152,2.011,2.554C87.404,98.236,89.04,97.8,90.531,96.007z M49.433,95.92c0,0.559,0.021,0.784-0.004,1.004
		c-0.056,0.5,0.108,0.697,0.652,0.699c0.644,0.002,0.566-0.388,0.565-0.786c-0.001-2.075,0.04-4.15-0.013-6.223
		c-0.038-1.486-0.571-2.738-2.104-3.299c-1.503-0.551-2.975-0.318-4.416,0.249c-0.506,0.199-0.808,0.589-0.558,1.13
		c0.311,0.674,0.7,0.03,0.976-0.063c3.029-1.021,5.141,0.018,4.751,2.723c-0.591,0-1.188,0.003-1.786-0.001
		c-1.168-0.008-2.291,0.193-3.345,0.72c-1.199,0.599-1.757,1.563-1.681,2.904c0.074,1.295,0.74,2.17,1.933,2.599
		C46.313,98.263,47.924,97.766,49.433,95.92z M138.668,96.002c0.065,0.326,0.092,0.404,0.095,0.482
		c0.022,0.552-0.089,1.141,0.806,1.136c0.971-0.006,0.573-0.707,0.578-1.104c0.035-2.756,0.026-5.512,0.01-8.269
		c-0.002-0.41,0.256-0.975-0.594-0.995c-0.781-0.019-0.808,0.37-0.801,0.956c0.022,1.678,0.063,3.358-0.011,5.032
		c-0.092,2.092-1.516,3.461-3.395,3.394c-1.721-0.062-2.425-1.021-2.444-3.37c-0.014-1.758-0.016-3.516,0.002-5.273
		c0.005-0.484-0.099-0.752-0.655-0.726c-0.424,0.021-0.769-0.022-0.756,0.599c0.045,2.196-0.05,4.398,0.085,6.587
		c0.139,2.235,1.367,3.317,3.379,3.409C136.499,97.93,137.626,97.242,138.668,96.002z M145.278,88.737
		c-0.104-0.227-0.186-0.366-0.234-0.515c-0.14-0.425,0.08-1.08-0.799-0.962c-0.853,0.114-0.466,0.727-0.471,1.093
		c-0.037,2.755-0.021,5.511-0.019,8.266c0.001,0.49-0.174,1.031,0.708,1.011c0.89-0.021,0.676-0.589,0.68-1.063
		c0.015-1.637-0.043-3.276,0.022-4.911c0.082-2.074,1.51-3.466,3.379-3.41c1.666,0.051,2.44,1.116,2.466,3.393
		c0.003,0.24,0.001,0.479,0.001,0.719c0,1.518,0.014,3.035-0.009,4.552c-0.008,0.504,0.144,0.722,0.677,0.707
		c0.449-0.012,0.748-0.028,0.736-0.622c-0.044-2.195,0.063-4.398-0.089-6.584c-0.176-2.535-2.161-3.88-4.608-3.288
		C146.768,87.354,145.973,87.865,145.278,88.737z M169.918,97.836c0.28,0,0.562,0.021,0.84-0.004
		c1.52-0.139,2.746-1.109,2.976-2.338c0.283-1.515-0.296-2.536-1.907-3.312c-0.646-0.311-1.318-0.565-1.966-0.871
		c-0.624-0.294-1.006-0.745-0.954-1.501c0.056-0.807,0.54-1.199,1.234-1.425c0.708-0.231,1.4-0.139,2.119,0.008
		c0.318,0.065,0.905,0.412,1.026-0.36c0.108-0.684-0.357-0.854-0.838-0.896c-0.792-0.071-1.607-0.15-2.386-0.038
		c-1.41,0.203-2.372,1.177-2.526,2.36c-0.176,1.347,0.298,2.121,1.8,2.883c0.674,0.342,1.364,0.653,2.053,0.964
		c0.811,0.365,1.085,0.996,0.977,1.847c-0.102,0.805-0.661,1.083-1.347,1.321c-0.978,0.339-1.891,0.068-2.805-0.184
		c-0.388-0.107-0.708-0.21-0.846,0.272c-0.12,0.421-0.063,0.807,0.441,0.95C168.498,97.708,169.188,97.914,169.918,97.836z
		 M55.927,97.846c2.093,0.002,3.402-0.915,3.741-2.557c0.283-1.374-0.6-2.589-2.433-3.359c-0.548-0.23-1.11-0.439-1.627-0.728
		c-0.539-0.301-0.98-0.737-0.871-1.435c0.105-0.677,0.476-1.12,1.169-1.356c0.839-0.287,1.639-0.153,2.452,0.027
		c0.393,0.087,0.734,0.077,0.841-0.383c0.11-0.468-0.086-0.725-0.583-0.838c-1.234-0.282-2.448-0.337-3.625,0.202
		c-1.038,0.476-1.603,1.331-1.644,2.444c-0.039,1.052,0.545,1.805,1.471,2.273c0.853,0.432,1.732,0.813,2.575,1.263
		c0.601,0.321,0.978,0.837,0.911,1.56c-0.07,0.762-0.556,1.189-1.234,1.467c-0.991,0.407-1.949,0.118-2.914-0.095
		c-0.312-0.069-0.712-0.446-0.853,0.162c-0.113,0.488-0.087,0.934,0.585,1.082C54.595,97.731,55.292,97.88,55.927,97.846z
		 M67.301,96.559c-2.244,0.376-2.788-0.094-2.792-2.4c-0.001-1.04-0.006-2.08,0.002-3.12c0.006-0.797-0.228-1.747,0.125-2.348
		c0.319-0.543,1.33-0.161,2.033-0.195c0.418-0.02,0.545-0.17,0.546-0.571c0.001-0.42-0.056-0.7-0.576-0.657
		c-0.397,0.033-0.804-0.035-1.198,0.014c-0.721,0.089-1.027-0.142-0.945-0.91c0.065-0.618,0.013-1.248,0.013-1.896
		c-1.383,0.299-1.433,0.301-1.375,1.746c0.032,0.812-0.152,1.205-1.029,1.06c-0.272-0.045-0.559,0.004-0.839-0.006
		c-0.456-0.016-0.491,0.269-0.499,0.625c-0.009,0.392,0.111,0.608,0.538,0.587c0.279-0.014,0.565,0.035,0.839-0.007
		c0.789-0.119,1.015,0.195,0.99,0.979c-0.058,1.798-0.035,3.599-0.015,5.398c0.024,2.112,1.043,3.042,3.138,3
		C67.196,97.839,67.607,97.523,67.301,96.559z M74.639,90.4c0,2.118,0.013,4.237-0.008,6.355c-0.006,0.551,0.036,0.878,0.745,0.862
		c1.998-0.047,3.997-0.025,5.995-0.01c0.463,0.003,0.731-0.048,0.729-0.631c-0.001-0.635-0.368-0.58-0.776-0.579
		c-1.398,0.004-2.8-0.048-4.196,0.02c-0.822,0.041-1.081-0.169-1.068-1.035c0.052-3.637,0.032-7.274,0.009-10.911
		c-0.003-0.501,0.355-1.256-0.734-1.23c-1.107,0.025-0.665,0.808-0.676,1.284C74.613,86.482,74.639,88.442,74.639,90.4z
		 M157.273,88.835c-0.065-0.358-0.114-0.505-0.114-0.653c-0.001-0.486,0.077-0.941-0.696-0.93c-0.798,0.012-0.652,0.511-0.652,0.97
		c-0.003,2.837,0.006,5.675-0.008,8.512c-0.002,0.536,0.019,0.89,0.739,0.897c0.8,0.008,0.665-0.473,0.665-0.936
		c0.001-1.519-0.075-3.042,0.017-4.555c0.179-2.934,1.436-4.042,3.326-3.88c0.495,0.043,0.502-0.201,0.503-0.555
		c0.001-0.385,0.005-0.652-0.538-0.689C159.12,86.923,158.162,87.576,157.273,88.835z M163.192,92.378
		c0,1.436-0.003,2.871,0.002,4.307c0.001,0.454-0.156,0.954,0.652,0.946c0.704-0.006,0.755-0.333,0.751-0.884
		c-0.016-2.871-0.016-5.743,0.001-8.614c0.003-0.549-0.044-0.877-0.75-0.884c-0.808-0.009-0.653,0.487-0.654,0.942
		C163.189,89.586,163.192,90.982,163.192,92.378z M251.001,137.707c1.636-0.014,2.896-1.299,2.849-2.904
		c-0.046-1.51-1.383-2.755-2.927-2.727c-1.543,0.029-2.791,1.325-2.764,2.872C248.188,136.533,249.41,137.721,251.001,137.707z
		 M164.62,84.073c0.104-0.525,0.069-0.934-0.726-0.901c-0.627,0.026-0.92,0.129-0.907,0.846c0.012,0.651,0.164,0.914,0.862,0.889
		C164.429,84.885,164.783,84.799,164.62,84.073z"/>
	<path fill-rule="evenodd" clip-rule="evenodd" fill="#F9A620" d="M235.265,82.685c-0.026,0.439,0.048,0.915-0.098,1.31
		c-0.338,0.91,0.054,1.242,0.856,1.543c0.627,0.235,0.986,0.27,1.354-0.372c0.461-0.803,1.167-1.415,1.881-1.997
		c0.633-0.516,1.209-0.9,2.124-0.338c0.878,0.54,1.071,1.112,0.865,2.059c-0.214,0.98-0.392,1.973-0.884,2.845
		c-0.404,0.715,0.131,0.917,0.512,1.226c0.394,0.319,0.738,0.719,1.317,0.172c0.879-0.831,1.955-1.357,3.089-1.79
		c0.656-0.25,1.057-0.014,1.464,0.427c0.437,0.471,0.91,0.886,0.601,1.659c-0.45,1.122-0.967,2.211-1.798,3.087
		c-0.555,0.584-0.127,0.917,0.157,1.325c0.303,0.434,0.552,0.827,1.243,0.489c1.116-0.545,2.315-0.813,3.577-0.899
		c0.787-0.054,0.93,0.466,1.21,0.914c0.29,0.463,0.643,0.896,0.194,1.51c-0.716,0.978-1.503,1.877-2.523,2.53
		c-0.563,0.359-0.598,0.739-0.335,1.29c0.242,0.509,0.357,1,1.162,0.869c0.895-0.145,1.824-0.064,2.737-0.102
		c1.219-0.05,1.801,0.539,1.962,1.733c0.068,0.502,0.009,0.809-0.371,1.14c-0.917,0.798-1.923,1.441-3.08,1.802
		c-0.636,0.198-0.812,0.523-0.627,1.139c0.159,0.531-0.017,1.232,0.949,1.192c1.007-0.041,1.948,0.347,2.897,0.668
		c0.896,0.303,1.192,0.829,1.178,1.782c-0.013,0.829-0.325,1.218-1.028,1.511c-0.932,0.39-1.9,0.735-2.883,0.739
		c-1.013,0.004-0.989,0.606-1.151,1.271c-0.209,0.854,0.429,0.852,0.91,1.091c0.749,0.372,1.477,0.792,2.191,1.226
		c0.764,0.463,1.196,1,0.921,2.049c-0.28,1.064-0.975,1.265-1.84,1.336c-0.916,0.077-1.844,0.147-2.742-0.109
		c-0.666-0.19-0.942,0.12-1.14,0.687c-0.184,0.527-0.508,0.994,0.234,1.418c0.838,0.478,1.445,1.238,2.092,1.954
		c0.701,0.777,0.701,1.446,0.172,2.341c-0.52,0.878-1.207,0.773-1.955,0.644c-0.905-0.156-1.81-0.354-2.623-0.802
		c-0.616-0.339-0.991-0.197-1.358,0.391c-0.328,0.523-0.723,0.908-0.097,1.531c0.741,0.737,1.179,1.693,1.573,2.665
		c0.286,0.705,0.232,1.204-0.339,1.807c-0.668,0.703-1.247,0.822-2.083,0.387c-0.815-0.426-1.661-0.79-2.363-1.399
		c-0.466-0.404-0.812-0.724-1.495-0.165c-0.661,0.54-0.785,0.937-0.4,1.682c0.42,0.813,0.566,1.73,0.741,2.638
		c0.185,0.954-0.158,1.452-0.958,1.903c-0.704,0.396-1.207,0.353-1.818-0.156c-0.741-0.618-1.484-1.232-2.02-2.034
		c-0.393-0.589-0.671-0.925-1.493-0.534c-0.747,0.354-0.98,0.631-0.795,1.482c0.184,0.84,0.069,1.749,0.05,2.627
		c-0.02,0.87-0.327,1.452-1.305,1.709c-0.971,0.255-1.522-0.114-2.012-0.817c-0.549-0.788-1.103-1.587-1.355-2.521
		c-0.182-0.672-0.582-0.766-1.163-0.669c-0.571,0.094-1.116,0.161-1.102,0.958c0.017,0.934-0.297,1.809-0.602,2.676
		c-0.287,0.815-0.617,1.427-1.735,1.443c-1.112,0.017-1.447-0.572-1.769-1.381c-0.343-0.861-0.61-1.763-0.626-2.671
		c-0.015-0.885-0.539-0.911-1.146-1.016c-0.62-0.106-1.064-0.048-1.248,0.688c-0.225,0.902-0.767,1.663-1.286,2.421
		c-0.473,0.69-0.968,1.163-1.971,0.891c-1.002-0.271-1.333-0.854-1.386-1.78c-0.055-0.961-0.154-1.943,0.089-2.866
		c0.202-0.768-0.233-0.873-0.719-1.076c-0.485-0.202-0.922-0.481-1.312,0.198c-0.482,0.84-1.203,1.496-1.943,2.104
		c-0.594,0.489-1.127,0.997-2.092,0.452c-0.968-0.546-1.125-1.222-0.96-2.156c0.153-0.868,0.34-1.735,0.742-2.518
		c0.332-0.646,0.281-1.034-0.347-1.492c-0.61-0.446-1.021-0.585-1.626-0.009c-0.637,0.605-1.438,1-2.246,1.36
		c-0.754,0.335-1.367,0.546-2.127-0.213c-0.767-0.767-0.692-1.416-0.313-2.235c0.37-0.802,0.753-1.613,1.37-2.239
		c0.596-0.603,0.438-1.006,0.002-1.62c-0.446-0.627-0.802-0.653-1.459-0.363c-0.796,0.351-1.66,0.561-2.51,0.771
		c-0.995,0.246-1.757,0.006-2.213-1.046c-0.249-0.575-0.327-0.99,0.086-1.515c0.723-0.918,1.474-1.808,2.481-2.405
		c0.688-0.408,0.366-0.854,0.184-1.316c-0.189-0.479-0.326-0.997-1.081-0.784c-0.934,0.264-1.902,0.155-2.862,0.128
		c-1.11-0.032-1.729-0.495-1.884-1.674c-0.082-0.611,0.029-0.982,0.48-1.338c0.917-0.723,1.882-1.358,3-1.718
		c0.478-0.153,0.821-0.356,0.592-0.928c-0.205-0.509,0.206-1.346-0.857-1.398c-1.161-0.059-2.267-0.414-3.356-0.836
		c-0.698-0.271-0.89-0.787-0.854-1.403c0.037-0.642-0.032-1.346,0.821-1.673c1.052-0.404,2.103-0.792,3.234-0.81
		c0.934-0.015,0.851-0.665,1-1.281c0.173-0.714-0.18-0.885-0.727-1.085c-0.863-0.316-1.681-0.747-2.417-1.305
		c-0.595-0.452-1.201-0.814-0.906-1.831c0.275-0.946,0.666-1.426,1.682-1.497c0.88-0.061,1.753-0.165,2.618,0.019
		c0.689,0.146,1.188,0.166,1.508-0.664c0.287-0.742,0.169-1.102-0.494-1.544c-0.686-0.457-1.246-1.116-1.818-1.727
		c-0.591-0.632-0.965-1.225-0.386-2.204c0.583-0.986,1.262-1.025,2.188-0.832c0.863,0.18,1.732,0.359,2.505,0.779
		c0.634,0.344,0.976,0.191,1.362-0.37s0.732-0.972,0.085-1.623c-0.705-0.709-1.126-1.634-1.531-2.555
		c-0.335-0.761-0.221-1.313,0.392-1.914c0.593-0.581,1.126-0.783,1.888-0.408c0.97,0.478,1.979,0.905,2.74,1.688
		c0.549,0.563,0.878,0.199,1.297-0.122c0.421-0.323,0.859-0.547,0.443-1.224c-0.505-0.822-0.707-1.78-0.864-2.725
		c-0.13-0.777-0.242-1.508,0.702-2.045c0.938-0.534,1.607-0.395,2.342,0.267c0.686,0.618,1.377,1.235,1.862,2.02
		c0.358,0.58,0.741,0.602,1.29,0.331c0.532-0.262,1.147-0.363,0.948-1.234c-0.251-1.098-0.157-2.215-0.024-3.333
		c0.093-0.785,0.548-1.048,1.232-1.228c0.663-0.175,1.203-0.267,1.706,0.369c0.729,0.92,1.345,1.903,1.696,3.01
		c0.285,0.898,0.912,0.544,1.456,0.546c0.565,0.001,0.854-0.234,0.88-0.864c0.048-1.169,0.433-2.258,0.901-3.33
		c0.295-0.677,0.763-0.822,1.422-0.814c0.678,0.008,1.228,0.075,1.552,0.819c0.451,1.036,0.809,2.089,0.872,3.215
		c0.035,0.607,0.178,0.98,0.877,0.989c0.628,0.008,1.267,0.246,1.503-0.692c0.194-0.772,0.609-1.475,1.083-2.126
		c0.564-0.776,1.027-1.523,2.302-1.138c1.218,0.369,1.19,1.215,1.267,2.119c0.022,0.277,0.004,0.559,0.004,0.838
		C235.245,82.685,235.255,82.685,235.265,82.685z M227.619,134.359c8.276-0.426,15.733-5.023,20.354-14.04
		c1.381-2.693,0.815-2.256-1.244-3.022c-0.262-0.097-0.527-0.184-0.792-0.271c-1.877-0.625-1.878-0.625-2.738,1.154
		c-4.592,9.496-15.886,13.586-25.424,9.176c-4.419-2.043-7.653-5.304-9.61-9.77c-0.413-0.945-0.883-1.21-1.828-0.795
		c-0.727,0.319-1.508,0.517-2.261,0.776c-1.301,0.448-1.363,0.6-0.816,1.904C207.013,128.434,216.002,134.367,227.619,134.359z
		 M250.411,109.789c-0.04-6.103-1.957-11.501-5.998-16.127c-0.69-0.79-1.229-0.875-1.927-0.046
		c-0.513,0.609-1.083,1.183-1.691,1.697c-0.861,0.728-0.84,1.357-0.097,2.197c2.132,2.41,3.519,5.207,4.106,8.387
		c0.417,2.258,0.415,4.517,0.065,6.781c-0.274,1.778-0.212,1.88,1.464,2.365c0.729,0.21,1.474,0.376,2.185,0.635
		c0.801,0.292,1.183,0.048,1.36-0.771C250.243,113.219,250.405,111.516,250.411,109.789z M201.276,109.697
		c-0.015,1.483,0.131,2.953,0.373,4.411c0.31,1.862,0.383,1.894,2.233,1.354c0.421-0.123,0.845-0.236,1.266-0.359
		c1.923-0.559,1.915-0.614,1.645-2.57c-0.682-4.929,0.169-9.521,3.07-13.664c0.601-0.859,1.876-1.511,1.668-2.612
		c-0.201-1.063-1.387-1.692-2.164-2.487c-1.037-1.061-1.216-1.067-2.173,0.028C203.221,98.349,201.364,103.697,201.276,109.697z
		 M225.561,85.121c-0.597,0.051-1.673,0.114-2.742,0.239c-4.515,0.529-8.521,2.297-12.13,5.022c-0.648,0.489-0.72,0.995-0.159,1.598
		c0.599,0.644,1.225,1.269,1.754,1.967c0.64,0.843,1.198,0.896,2.091,0.269c7.256-5.1,15.666-5.093,22.894,0.007
		c0.884,0.624,1.454,0.569,2.087-0.292c0.494-0.673,1.093-1.274,1.684-1.869c0.692-0.696,0.528-1.207-0.205-1.754
		C236.441,87.033,231.53,85.267,225.561,85.121z M243.368,109.74c0.019-1.813-0.304-3.578-0.771-5.319
		c-0.337-1.258-0.541-1.339-1.603-0.625c-2.454,1.649-4.899,3.31-7.338,4.981c-0.942,0.646-0.959,1.195-0.033,1.834
		c2.499,1.725,5.026,3.409,7.521,5.142c0.843,0.586,1.188,0.278,1.413-0.581C243.023,113.39,243.356,111.59,243.368,109.74z
		 M228.278,93.48c0.22,3.028,0.43,6.057,0.664,9.084c0.085,1.1,0.536,1.33,1.635,0.808c2.705-1.286,5.388-2.619,8.099-3.892
		c0.89-0.417,0.911-0.806,0.252-1.49c-2.651-2.749-5.802-4.586-9.517-5.507C228.377,92.228,228.184,92.616,228.278,93.48z
		 M209.823,103.383c-0.538,0.058-0.601,0.459-0.697,0.785c-1.1,3.736-1.11,7.474-0.007,11.214c0.235,0.797,0.644,0.917,1.314,0.458
		c2.537-1.737,5.092-3.448,7.619-5.199c0.888-0.615,0.877-1.13-0.031-1.757c-2.529-1.748-5.08-3.464-7.626-5.188
		C210.201,103.564,209.982,103.469,209.823,103.383z M228.3,125.729c-0.104,1.266,0.084,1.438,1.32,1.129
		c3.659-0.913,6.764-2.774,9.382-5.483c0.654-0.677,0.479-1.063-0.276-1.425c-2.731-1.312-5.449-2.65-8.188-3.945
		c-1.097-0.519-1.499-0.237-1.592,1.012C228.727,119.92,228.515,122.824,228.3,125.729z M223.351,93.539
		c0.162-1.001-0.361-1.18-1.196-0.969c-3.737,0.943-6.926,2.814-9.581,5.611c-0.541,0.569-0.463,0.949,0.214,1.278
		c2.763,1.344,5.516,2.709,8.291,4.027c1.098,0.521,1.55,0.219,1.638-0.99C222.933,99.51,223.14,96.524,223.351,93.539z
		 M223.423,124.692c-0.168-2.134-0.354-4.882-0.611-7.623c-0.123-1.313-0.518-1.502-1.722-0.922
		c-2.625,1.266-5.241,2.549-7.854,3.839c-1.112,0.55-1.143,0.75-0.302,1.624c2.405,2.503,5.272,4.241,8.617,5.19
		C223.551,127.368,223.549,127.375,223.423,124.692z M231.888,109.772c-0.011-3.455-2.724-6.167-6.147-6.148
		c-3.29,0.018-6.077,2.82-6.109,6.143c-0.033,3.354,2.798,6.136,6.225,6.117C229.238,115.866,231.899,113.169,231.888,109.772z"/>
	<path fill-rule="evenodd" clip-rule="evenodd" fill="#135096" d="M89.278,119.853c0-3.519,0.022-7.037-0.015-10.556
		c-0.01-0.938,0.262-1.36,1.265-1.434c3.186-0.233,6.365-0.634,9.561-0.209c3.391,0.451,5.369,2.19,6.046,5.252
		c0.766,3.458-0.27,6.137-3.191,7.936c-0.674,0.415-0.6,0.732-0.34,1.306c1.216,2.689,2.406,5.39,3.591,8.092
		c0.611,1.393,0.433,1.479-1.011,1.678c-2.19,0.301-3.435-0.396-4.131-2.583c-0.663-2.08-1.751-4.022-2.611-6.043
		c-0.233-0.549-0.505-0.803-1.139-0.787c-0.955,0.023-1.919-0.029-2.868-0.146c-0.749-0.093-0.958,0.121-0.944,0.879
		c0.047,2.438-0.01,4.878,0.031,7.316c0.016,0.954-0.261,1.374-1.296,1.346c-3.308-0.09-2.932,0.467-2.945-2.929
		C89.268,125.931,89.278,122.892,89.278,119.853z M93.505,115.016c0,0.918,0.013,1.836-0.005,2.754
		c-0.009,0.452,0.062,0.771,0.615,0.79c1.591,0.059,3.18,0.246,4.771-0.038c1.981-0.353,3.167-1.72,3.111-3.619
		c-0.056-1.883-1.356-3.201-3.345-3.402c-1.396-0.143-2.789,0.018-4.182,0.011c-0.815-0.003-1.02,0.376-0.976,1.11
		C93.542,113.417,93.505,114.217,93.505,115.016z"/>
	<path fill-rule="evenodd" clip-rule="evenodd" fill="#124F96" d="M177.51,127.689c0.826-3.106,1.653-6.212,2.479-9.318
		c0.276-1.042,0.575-2.078,0.817-3.127c0.168-0.73,0.524-1.049,1.32-1.063c3.063-0.056,3.063-0.082,2.292,2.878
		c-1.392,5.329-2.761,10.665-4.187,15.985c-0.601,2.24-1.583,4.266-4.166,4.748c-1.838,0.343-3.686-0.017-5.445-0.503
		c-1.203-0.332-0.63-1.568-0.666-2.404c-0.034-0.807,0.702-0.72,1.253-0.698c0.996,0.038,1.99,0.137,2.986,0.161
		c0.81,0.021,1.536-0.268,1.897-1.023c0.306-0.642,0.915-1.446-0.623-1.515c-0.94-0.041-1.52-0.848-1.76-1.756
		c-1.292-4.9-2.562-9.806-3.845-14.708c-0.207-0.792,0.13-1.132,0.897-1.148c0.04-0.001,0.081-0.001,0.12-0.001
		c3.286,0.048,2.602-0.408,3.397,2.528c0.99,3.648,1.956,7.304,2.932,10.956C177.311,127.684,177.41,127.687,177.51,127.689z"/>
	<path fill-rule="evenodd" clip-rule="evenodd" fill="#115095" d="M153.841,125.011c0.001,1.959,0.006,3.917-0.001,5.876
		c-0.005,1.244-0.365,1.655-1.382,1.093c-1.776-0.985-3.398-0.508-5.113-0.043c-1.078,0.293-2.19,0.396-3.318,0.272
		c-2.479-0.271-3.9-1.578-4.354-4.031c-0.161-0.87-0.224-1.74-0.092-2.62c0.334-2.247,1.372-3.399,3.569-3.973
		c1.87-0.488,3.796-0.489,5.701-0.648c0.692-0.058,0.965-0.202,0.928-0.962c-0.071-1.483-0.703-2.225-2.224-2.197
		c-1.834,0.032-3.67,0.14-5.5,0.278c-0.906,0.069-1.29-0.189-1.348-1.157c-0.138-2.319-0.188-2.361,2.039-2.65
		c2.013-0.262,4.026-0.561,6.077-0.385c3.161,0.272,4.851,1.976,5.009,5.15c0.004,0.08,0.009,0.16,0.009,0.24
		C153.841,121.173,153.841,123.092,153.841,125.011z M149.757,126.116c0-0.52,0.002-1.04-0.001-1.56
		c-0.002-0.306-0.048-0.526-0.471-0.487c-1.311,0.123-2.643,0.104-3.932,0.33c-1.378,0.242-1.885,1.214-1.642,2.712
		c0.201,1.248,0.914,1.756,2.332,1.632c0.557-0.049,1.11-0.135,1.663-0.225C149.761,128.185,149.76,128.182,149.757,126.116z"/>
	<path fill-rule="evenodd" clip-rule="evenodd" fill="#115095" d="M108.957,123.015c0-0.637-0.043-1.277,0.007-1.91
		c0.439-5.519,3.48-7.627,8.634-7.254c4.515,0.326,6.395,2.262,7.022,6.816c0.324,2.353,0.24,4.699-0.484,6.989
		c-0.734,2.325-2.266,3.785-4.662,4.33c-1.66,0.378-3.335,0.405-4.988,0.079c-3.332-0.658-5.205-3.033-5.507-6.897
		c-0.056-0.714-0.008-1.436-0.008-2.153C108.966,123.015,108.961,123.015,108.957,123.015z M120.598,122.974
		c-0.037-0.557-0.08-1.394-0.154-2.229c-0.024-0.273-0.116-0.545-0.199-0.811c-0.543-1.729-1.696-2.479-3.66-2.393
		c-1.873,0.082-2.927,0.916-3.295,2.696c-0.376,1.818-0.376,3.651-0.028,5.477c0.358,1.881,1.396,2.769,3.288,2.843
		c2.121,0.084,3.209-0.677,3.75-2.569C120.557,125.089,120.548,124.173,120.598,122.974z"/>
	<path fill-rule="evenodd" clip-rule="evenodd" fill="#115095" d="M128.637,123.219c0-1.59-0.03-2.989,0.014-4.387
		c0.02-0.652-0.137-0.965-0.847-0.878c-1.036,0.128-1.483-0.354-1.376-1.394c0.041-0.396,0.027-0.8,0.003-1.197
		c-0.047-0.795,0.272-1.277,1.103-1.15c1.045,0.159,1.206-0.372,1.11-1.215c-0.036-0.315,0.019-0.641-0.011-0.958
		c-0.071-0.765,0.231-1.132,1.013-1.325c3.518-0.866,3.119-0.872,3.049,2.275c-0.022,1.011,0.252,1.337,1.249,1.227
		c0.79-0.088,1.597-0.002,2.396-0.024c0.784-0.021,1.154,0.284,1.197,1.115c0.134,2.633,0.135,2.653-2.544,2.654
		c-2.269,0.001-2.274,0.001-2.268,2.316c0.005,1.998-0.02,3.997,0.048,5.993c0.06,1.765,0.437,2.078,2.159,2.086
		c0.08,0,0.16,0,0.24,0c2.407,0.006,2.688,0.342,2.399,2.796c-0.055,0.469-0.267,0.706-0.726,0.801
		c-1.695,0.349-3.396,0.535-5.104,0.137c-1.75-0.408-2.53-1.676-2.851-3.326C128.518,126.864,128.677,124.941,128.637,123.219z"/>
	<path fill-rule="evenodd" clip-rule="evenodd" fill="#135096" d="M162.274,115.856c1.256-0.67,2.348-1.339,3.597-1.631
		c1.479-0.347,1.791-0.096,1.796,1.423c0.001,0.319-0.018,0.641,0.002,0.959c0.052,0.813-0.256,1.291-1.127,1.358
		c-0.393,0.03-0.783,0.151-1.161,0.275c-2.698,0.885-3.094,1.43-3.095,4.214c0,2.679-0.035,5.357,0.019,8.035
		c0.02,1.009-0.246,1.441-1.34,1.411c-3.081-0.084-2.76,0.379-2.765-2.747c-0.008-4.437-0.003-8.874-0.001-13.312
		c0.001-1.571,0.072-1.641,1.6-1.644c0.279-0.001,0.563,0.026,0.839-0.005C161.779,114.063,162.554,114.334,162.274,115.856z"/>
	<path fill-rule="evenodd" clip-rule="evenodd" fill="#245294" d="M103.063,87.483c-1.368,1.13-2.708,2.297-4.115,3.375
		c-0.822,0.63-1.021,1.057-0.129,1.86c1.65,1.485,3.178,3.106,4.868,4.781c-1.18,0.22-1.914,0.104-2.676-0.754
		c-1.293-1.454-2.821-2.699-4.34-4.116c0,1.317,0,2.716,0,4.114c0,0.438,0.081,0.849-0.623,0.886
		c-0.807,0.043-0.783-0.38-0.781-0.948c0.014-3.717,0.007-7.434,0.007-11.151c0-0.919,0.018-1.839-0.007-2.758
		c-0.014-0.504,0.038-0.813,0.686-0.801c0.603,0.012,0.732,0.244,0.728,0.787c-0.02,2.756-0.009,5.513-0.009,8.38
		C98.987,90.127,100.052,87.138,103.063,87.483z"/>
	<path fill-rule="evenodd" clip-rule="evenodd" fill="#245294" d="M183.926,95.961c0.419,1.316-0.383,1.508-1.259,1.721
		c-2.663,0.649-5.07-0.223-6.242-2.306c-1.222-2.172-0.806-5.384,0.92-7.091c1.354-1.339,3.561-1.689,5.197-0.824
		c1.428,0.754,2.466,3.039,2.222,4.716c-0.1,0.689-0.545,0.568-0.962,0.569c-1.918,0.008-3.837,0.016-5.754-0.001
		c-0.644-0.005-1.024-0.037-0.788,0.893c0.642,2.528,2.803,3.59,5.739,2.677C183.299,96.222,183.587,96.092,183.926,95.961z
		 M180.356,91.594c0.798,0,1.596-0.031,2.392,0.01c0.588,0.03,0.648-0.241,0.577-0.721c-0.245-1.651-1.044-2.56-2.396-2.688
		c-1.69-0.161-2.813,0.563-3.422,2.15c-0.322,0.84-0.351,1.382,0.817,1.262C178.996,91.538,179.679,91.594,180.356,91.594z"/>
	<path fill-rule="evenodd" clip-rule="evenodd" fill="#17498B" d="M32.639,90.528c0-2.077,0.025-4.155-0.015-6.231
		c-0.013-0.669,0.17-0.89,0.858-0.873c1.876,0.045,3.755,0.009,5.632,0.021c0.397,0.002,0.902-0.183,0.919,0.565
		c0.019,0.83-0.548,0.62-0.979,0.625c-1.398,0.016-2.797,0.041-4.194-0.008c-0.651-0.022-0.815,0.202-0.792,0.816
		c0.044,1.157,0.052,2.318-0.002,3.475c-0.032,0.675,0.25,0.789,0.836,0.772c1.277-0.036,2.556-0.013,3.834-0.009
		c0.388,0.001,0.799-0.097,0.818,0.552c0.02,0.69-0.387,0.652-0.847,0.649c-1.318-0.007-2.637,0.019-3.955-0.012
		c-0.521-0.012-0.696,0.15-0.684,0.678c0.032,1.357,0.046,2.717-0.004,4.074c-0.024,0.656,0.212,0.805,0.821,0.789
		c1.477-0.039,2.956-0.01,4.434-0.013c0.407-0.001,0.775-0.057,0.778,0.577c0.003,0.583-0.263,0.636-0.727,0.632
		c-1.998-0.016-3.996-0.037-5.992,0.01c-0.701,0.016-0.757-0.299-0.751-0.857C32.653,94.683,32.639,92.605,32.639,90.528z"/>
	<path fill-rule="evenodd" clip-rule="evenodd" fill="#245294" d="M112.696,96.041c0.412,1.069-0.151,1.383-1.074,1.615
		c-2.708,0.68-5.222-0.157-6.352-2.255c-0.996-1.851-1.079-5.521,1.177-7.367c1.312-1.073,3.621-1.366,5.041-0.517
		c1.434,0.857,2.404,3.199,2.047,4.799c-0.123,0.551-0.488,0.429-0.816,0.43c-1.916,0.01-3.833,0.058-5.746-0.016
		c-0.999-0.038-1.042,0.42-0.856,1.151c0.483,1.899,2.479,3.102,4.541,2.702C111.347,96.449,112.019,96.224,112.696,96.041z
		 M108.968,91.593c0.839,0,1.678,0.002,2.517-0.001c0.314-0.001,0.596,0.046,0.656-0.449c0.166-1.364-0.972-2.831-2.358-2.952
		c-1.878-0.164-3.065,0.742-3.558,2.584c-0.173,0.646-0.115,0.87,0.587,0.828C107.529,91.561,108.25,91.594,108.968,91.593z"/>
	<path fill-rule="evenodd" clip-rule="evenodd" fill="#205091" d="M127.766,84.848c-1.217-0.534-2.439-0.916-3.787-0.501
		c-0.977,0.3-1.593,0.905-1.775,1.879c-0.167,0.892,0.187,1.619,0.904,2.195c0.911,0.732,1.994,1.147,2.994,1.714
		c1.285,0.729,2.408,1.613,2.534,3.227c0.176,2.248-1.218,4.033-3.47,4.41c-1.266,0.212-2.536,0.084-3.786-0.247
		c-0.768-0.204-0.761-0.759-0.582-1.303c0.239-0.725,0.66-0.092,0.937-0.006c1.198,0.371,2.382,0.595,3.617,0.186
		c0.952-0.314,1.572-0.964,1.788-1.914c0.205-0.907-0.074-1.732-0.761-2.385c-0.793-0.754-1.833-1.094-2.764-1.617
		c-1.077-0.605-2.187-1.184-2.673-2.427c-0.881-2.25,0.576-4.654,3.083-5.038c0.944-0.145,1.894-0.062,2.853,0.088
		C128.038,83.292,128.168,83.863,127.766,84.848z"/>
	<path fill-rule="evenodd" clip-rule="evenodd" fill="#215192" d="M90.531,96.007c-1.491,1.793-3.126,2.229-5.006,1.587
		c-1.179-0.402-1.915-1.252-2.011-2.554c-0.102-1.388,0.478-2.383,1.729-2.997c1.292-0.633,2.674-0.792,4.072-0.672
		c0.949,0.082,1.058-0.365,0.976-1.112c-0.126-1.148-0.958-1.908-2.292-2.005c-0.927-0.068-1.808,0.184-2.675,0.485
		c-0.23,0.081-0.479,0.442-0.694,0.037c-0.175-0.329-0.216-0.748,0.149-0.97c1.401-0.848,2.934-1.001,4.489-0.602
		c1.552,0.399,2.28,1.579,2.392,3.089c0.164,2.224-0.156,4.466,0.207,6.688c0.075,0.457-0.143,0.657-0.612,0.629
		c-0.368-0.022-0.75,0.031-0.726-0.523C90.541,96.814,90.531,96.54,90.531,96.007z M88.81,92.326c-0.75,0.06-1.807,0.13-2.795,0.653
		c-0.832,0.44-1.095,1.153-1.021,1.976c0.082,0.921,0.645,1.498,1.585,1.692c1.968,0.407,3.333-0.571,3.712-2.686
		C90.584,92.324,90.584,92.324,88.81,92.326z"/>
	<path fill-rule="evenodd" clip-rule="evenodd" fill="#215192" d="M49.433,95.92c-1.509,1.845-3.12,2.342-5.029,1.655
		c-1.193-0.429-1.859-1.304-1.933-2.599c-0.076-1.341,0.482-2.306,1.681-2.904c1.054-0.527,2.176-0.728,3.345-0.72
		c0.598,0.004,1.195,0.001,1.786,0.001c0.39-2.705-1.723-3.744-4.751-2.723c-0.276,0.093-0.665,0.737-0.976,0.063
		c-0.25-0.541,0.052-0.931,0.558-1.13c1.441-0.567,2.913-0.8,4.416-0.249c1.533,0.562,2.066,1.813,2.104,3.299
		c0.053,2.073,0.012,4.148,0.013,6.223c0,0.397,0.078,0.788-0.565,0.786c-0.544-0.002-0.708-0.199-0.652-0.699
		C49.454,96.705,49.433,96.479,49.433,95.92z M47.708,92.325c-0.622,0.033-1.682,0.118-2.674,0.614
		c-0.875,0.438-1.192,1.188-1.075,2.062c0.128,0.958,0.761,1.532,1.755,1.673c2.001,0.285,3.115-0.613,3.552-2.885
		C49.547,92.325,49.547,92.325,47.708,92.325z"/>
	<path fill-rule="evenodd" clip-rule="evenodd" fill="#205091" d="M138.668,96.002c-1.042,1.24-2.169,1.927-3.7,1.857
		c-2.012-0.092-3.24-1.174-3.379-3.409c-0.136-2.189-0.041-4.391-0.085-6.587c-0.013-0.621,0.332-0.579,0.756-0.599
		c0.556-0.027,0.66,0.242,0.655,0.726c-0.019,1.757-0.017,3.515-0.002,5.273c0.019,2.349,0.723,3.308,2.444,3.37
		c1.879,0.068,3.303-1.301,3.395-3.394c0.074-1.674,0.033-3.354,0.011-5.032c-0.007-0.585,0.02-0.974,0.801-0.956
		c0.851,0.021,0.592,0.585,0.594,0.995c0.017,2.756,0.025,5.513-0.01,8.269c-0.005,0.397,0.393,1.099-0.578,1.104
		c-0.896,0.005-0.784-0.583-0.806-1.136C138.76,96.406,138.733,96.329,138.668,96.002z"/>
	<path fill-rule="evenodd" clip-rule="evenodd" fill="#205091" d="M145.278,88.737c0.694-0.872,1.489-1.384,2.44-1.614
		c2.447-0.592,4.433,0.753,4.608,3.288c0.152,2.186,0.045,4.389,0.089,6.584c0.012,0.594-0.287,0.609-0.736,0.622
		c-0.533,0.015-0.685-0.203-0.677-0.707c0.022-1.517,0.009-3.035,0.009-4.552c0-0.239,0.002-0.479-0.001-0.719
		c-0.025-2.276-0.8-3.342-2.466-3.393c-1.869-0.056-3.297,1.336-3.379,3.41c-0.065,1.635-0.008,3.274-0.022,4.911
		c-0.004,0.473,0.21,1.042-0.68,1.063c-0.882,0.021-0.707-0.521-0.708-1.011c-0.003-2.755-0.019-5.511,0.019-8.266
		c0.005-0.367-0.382-0.979,0.471-1.093c0.879-0.118,0.659,0.538,0.799,0.962C145.093,88.372,145.174,88.51,145.278,88.737z"/>
	<path fill-rule="evenodd" clip-rule="evenodd" fill="#245294" d="M169.919,97.837c-0.731,0.076-1.421-0.13-2.109-0.325
		c-0.505-0.143-0.562-0.529-0.441-0.95c0.138-0.482,0.458-0.379,0.846-0.272c0.914,0.252,1.827,0.523,2.805,0.184
		c0.686-0.237,1.245-0.516,1.347-1.321c0.108-0.851-0.166-1.482-0.977-1.847c-0.688-0.311-1.379-0.622-2.053-0.964
		c-1.502-0.763-1.976-1.536-1.8-2.883c0.154-1.183,1.116-2.157,2.526-2.36c0.778-0.112,1.594-0.033,2.386,0.038
		c0.48,0.042,0.946,0.212,0.838,0.896c-0.121,0.772-0.708,0.425-1.026,0.36c-0.719-0.147-1.411-0.24-2.119-0.008
		c-0.694,0.227-1.179,0.619-1.234,1.425c-0.052,0.757,0.33,1.207,0.954,1.501c0.647,0.306,1.32,0.561,1.966,0.871
		c1.611,0.776,2.19,1.796,1.907,3.312c-0.229,1.229-1.456,2.199-2.976,2.338C170.479,97.858,170.198,97.836,169.919,97.837z"/>
	<path fill-rule="evenodd" clip-rule="evenodd" fill="#215192" d="M55.927,97.846c-0.636,0.034-1.333-0.115-2.038-0.271
		c-0.672-0.148-0.698-0.594-0.585-1.082c0.141-0.608,0.541-0.231,0.853-0.162c0.965,0.213,1.922,0.502,2.914,0.095
		c0.678-0.278,1.164-0.705,1.234-1.467c0.067-0.723-0.31-1.239-0.911-1.56c-0.843-0.45-1.722-0.831-2.575-1.263
		c-0.926-0.469-1.51-1.221-1.471-2.273c0.041-1.114,0.606-1.969,1.644-2.444c1.177-0.54,2.391-0.484,3.625-0.202
		c0.497,0.113,0.693,0.37,0.583,0.838c-0.107,0.459-0.448,0.47-0.841,0.383c-0.813-0.18-1.612-0.313-2.452-0.027
		c-0.694,0.237-1.064,0.68-1.169,1.356c-0.109,0.698,0.332,1.134,0.871,1.435c0.517,0.289,1.079,0.497,1.627,0.728
		c1.833,0.77,2.716,1.985,2.433,3.359C59.33,96.932,58.021,97.849,55.927,97.846z"/>
	<path fill-rule="evenodd" clip-rule="evenodd" fill="#205091" d="M67.301,96.559c0.306,0.964-0.105,1.28-1.045,1.298
		c-2.095,0.041-3.114-0.889-3.138-3c-0.021-1.799-0.043-3.601,0.015-5.398c0.025-0.784-0.201-1.098-0.99-0.979
		c-0.274,0.042-0.56-0.007-0.839,0.007c-0.427,0.021-0.546-0.195-0.538-0.587c0.008-0.356,0.043-0.64,0.499-0.625
		c0.28,0.01,0.566-0.039,0.839,0.006c0.877,0.146,1.061-0.248,1.029-1.06c-0.057-1.445-0.007-1.447,1.375-1.746
		c0,0.648,0.052,1.279-0.013,1.896c-0.082,0.768,0.225,1,0.945,0.91c0.394-0.049,0.801,0.019,1.198-0.014
		c0.521-0.042,0.577,0.237,0.576,0.657c-0.001,0.401-0.128,0.551-0.546,0.571c-0.703,0.034-1.714-0.349-2.033,0.195
		c-0.353,0.601-0.119,1.55-0.125,2.348c-0.009,1.04-0.004,2.08-0.002,3.12C64.513,96.465,65.057,96.936,67.301,96.559z"/>
	<path fill-rule="evenodd" clip-rule="evenodd" fill="#17498B" d="M74.639,90.4c0-1.958-0.026-3.918,0.019-5.875
		c0.011-0.477-0.431-1.259,0.676-1.284c1.09-0.025,0.731,0.729,0.734,1.23c0.023,3.637,0.042,7.274-0.009,10.911
		c-0.012,0.865,0.247,1.075,1.068,1.035c1.396-0.068,2.797-0.016,4.196-0.02c0.408-0.001,0.775-0.056,0.776,0.579
		c0.002,0.583-0.267,0.635-0.729,0.631c-1.998-0.016-3.997-0.038-5.995,0.01c-0.709,0.017-0.75-0.311-0.745-0.862
		C74.652,94.637,74.639,92.519,74.639,90.4z"/>
	<path fill-rule="evenodd" clip-rule="evenodd" fill="#245294" d="M157.273,88.835c0.889-1.26,1.847-1.913,3.241-1.819
		c0.543,0.037,0.539,0.304,0.538,0.689c-0.001,0.354-0.008,0.598-0.503,0.555c-1.891-0.163-3.147,0.946-3.326,3.88
		c-0.092,1.513-0.016,3.036-0.017,4.555c0,0.463,0.135,0.944-0.665,0.936c-0.721-0.007-0.741-0.361-0.739-0.897
		c0.014-2.837,0.005-5.675,0.008-8.512c0-0.459-0.146-0.958,0.652-0.97c0.773-0.011,0.695,0.444,0.696,0.93
		C157.159,88.33,157.208,88.478,157.273,88.835z"/>
	<path fill-rule="evenodd" clip-rule="evenodd" fill="#245294" d="M163.192,92.378c0-1.396-0.003-2.792,0.002-4.187
		c0.001-0.455-0.153-0.951,0.654-0.942c0.706,0.007,0.753,0.335,0.75,0.884c-0.017,2.871-0.017,5.743-0.001,8.614
		c0.004,0.55-0.047,0.877-0.751,0.884c-0.809,0.008-0.651-0.493-0.652-0.946C163.189,95.249,163.192,93.813,163.192,92.378z"/>
	<path fill-rule="evenodd" clip-rule="evenodd" fill="#F8AD32" d="M251.001,137.707c-1.591,0.014-2.813-1.174-2.842-2.759
		c-0.027-1.547,1.221-2.843,2.764-2.872c1.544-0.028,2.881,1.217,2.927,2.727C253.897,136.408,252.637,137.693,251.001,137.707z
		 M249.352,136.243c0.084,0.078,0.167,0.156,0.251,0.234c1.026,0.785,1.771,0.788,2.646,0.013c1.075-0.756,1.25-1.89,0.455-2.95
		c-0.736-0.981-2.046-1.06-3.108-0.185C248.638,134.326,248.577,135.043,249.352,136.243z"/>
	<path fill-rule="evenodd" clip-rule="evenodd" fill="#205091" d="M164.62,84.073c0.163,0.726-0.191,0.812-0.771,0.833
		c-0.698,0.025-0.851-0.237-0.862-0.889c-0.013-0.717,0.28-0.82,0.907-0.846C164.689,83.139,164.725,83.548,164.62,84.073z"/>
	<path fill-rule="evenodd" clip-rule="evenodd" fill="#FCF9F2" d="M227.619,134.359c-11.617,0.008-20.606-5.926-24.36-14.888
		c-0.547-1.305-0.484-1.456,0.816-1.904c0.753-0.26,1.534-0.457,2.261-0.776c0.945-0.415,1.415-0.15,1.828,0.795
		c1.957,4.466,5.191,7.727,9.61,9.77c9.538,4.41,20.832,0.32,25.424-9.176c0.86-1.779,0.861-1.779,2.738-1.154
		c0.265,0.088,0.53,0.175,0.792,0.271c2.06,0.767,2.625,0.329,1.244,3.022C243.353,129.336,235.896,133.934,227.619,134.359z
		 M209.113,123.593c-0.041-0.04-0.081-0.079-0.122-0.118c0.168-0.57,0.337-1.141,0.504-1.712c0.09-0.309-0.035-0.564-0.261-0.743
		c-0.25-0.196-0.436,0.055-0.618,0.176c-0.764,0.506-1.518,1.026-2.278,1.535c-0.276,0.185-0.557,0.336-0.263,0.74
		c0.299,0.409,0.536,0.131,0.801-0.022c0.359-0.208,0.63-0.588,1.204-0.603c-0.218,0.686-0.411,1.322-0.624,1.952
		c-0.109,0.321,0.041,0.544,0.245,0.743c0.288,0.28,0.505,0.046,0.714-0.135c0.393-0.338,0.831-0.641,1.156-1.035
		c0.392-0.477,1.563-0.749,1.118-1.369C210.096,122.174,209.74,123.579,209.113,123.593z M221.718,131.197
		c0.414,0.885,0.704,1.473,0.963,2.074c0.164,0.381,0.481,0.379,0.796,0.361c0.311-0.018,0.337-0.285,0.362-0.521
		c0.103-0.947,0.203-1.896,0.296-2.844c0.022-0.237,0.03-0.49-0.305-0.531c-0.291-0.035-0.455,0.119-0.501,0.384
		c-0.078,0.445-0.13,0.896-0.206,1.437c-0.537-0.556-0.65-1.197-0.926-1.753c-0.132-0.267-0.304-0.466-0.618-0.488
		c-0.405-0.029-0.418,0.305-0.479,0.558c-0.213,0.888-0.388,1.785-0.614,2.669c-0.092,0.354-0.13,0.628,0.3,0.735
		c0.476,0.118,0.503-0.245,0.575-0.553C221.452,132.34,221.542,131.954,221.718,131.197z M240.619,125.974
		c-0.655-0.189-1.218-0.358-1.783-0.512c-0.318-0.086-0.646-0.107-0.873,0.194c-0.24,0.318,0.074,0.511,0.22,0.716
		c0.508,0.713,1.04,1.409,1.558,2.115c0.204,0.277,0.403,0.505,0.767,0.205c0.326-0.269,0.087-0.474-0.041-0.714
		c-0.191-0.36-0.695-0.596-0.56-1.214c0.633,0.194,1.167,0.346,1.691,0.522c0.4,0.135,0.719,0.016,0.941-0.307
		c0.22-0.318-0.084-0.521-0.256-0.707c-0.648-0.702-1.318-1.383-1.979-2.074c-0.184-0.191-0.359-0.31-0.592-0.058
		c-0.198,0.213-0.194,0.398-0.008,0.622C240,125.116,240.417,125.375,240.619,125.974z M228.281,133.213
		c-0.479-1.072-0.915-2.226-1.513-3.288c-0.195-0.347-0.818-0.367-1.027,0.218c-0.359,1.007-0.673,2.03-1.008,3.045
		c-0.063,0.192-0.144,0.424,0.092,0.509c0.157,0.058,0.455,0.041,0.541-0.064c0.697-0.855,1.395-0.828,2.188-0.125
		C227.791,133.716,228.141,133.747,228.281,133.213z M218.842,132.679c0.271-0.004,0.336-0.201,0.307-0.401
		c-0.111-0.756,0.118-1.315,0.697-1.861c0.441-0.416,0.343-1.056-0.144-1.496c-1.098-0.993-2.057-0.776-2.625,0.568
		c-0.233,0.552-0.469,1.102-0.706,1.65c-0.113,0.263-0.249,0.545,0.096,0.722c0.386,0.198,0.564-0.047,0.73-0.368
		c0.161-0.313,0.121-0.915,0.711-0.747c0.521,0.148,0.235,0.689,0.358,1.039C218.387,132.125,218.239,132.645,218.842,132.679z
		 M215.004,129.269c0.229,0.074,0.365-0.044,0.431-0.177c0.18-0.364-0.145-0.463-0.358-0.63c-0.216-0.17-0.698-0.237-0.366-0.686
		c0.239-0.322,0.492-0.085,0.733,0.038c0.212,0.108,0.433,0.202,0.643,0.316c0.228,0.123,0.437,0.197,0.606-0.083
		c0.163-0.268,0.025-0.4-0.184-0.579c-1.495-1.284-1.864-1.248-2.952,0.335c-0.022,0.033-0.046,0.064-0.068,0.098
		c-1.313,1.916-1.314,1.918,0.837,2.971c0.225,0.11,0.466,0.41,0.703,0.028c0.203-0.325-0.064-0.464-0.251-0.679
		c-0.324-0.371-1.307-0.273-0.998-1.027C214.127,128.341,214.607,129.283,215.004,129.269z M238.315,129.034
		c-0.027-1.104-0.893-1.925-2.019-1.918c-1.07,0.007-1.985,0.941-1.956,1.996c0.03,1.111,0.897,1.92,2.038,1.901
		C237.512,130.994,238.343,130.145,238.315,129.034z M243.13,126.086c0.405-0.096,0.536-0.313,0.521-0.617
		c-0.043-0.919,0.157-1.619,1.294-1.565c0.286,0.014,0.427-0.217,0.485-0.444c0.068-0.267-0.199-0.311-0.366-0.367
		c-0.979-0.332-1.952-0.685-2.948-0.953c-0.691-0.186-1.136,0.318-0.815,0.924c0.5,0.948,1.097,1.845,1.653,2.762
		C243.016,125.924,243.085,126.019,243.13,126.086z M231.107,129.099c-1.076,0.207-1.897,0.355-2.713,0.527
		c-0.201,0.042-0.359,0.194-0.308,0.433c0.045,0.208,0.188,0.413,0.41,0.335c1.134-0.401,0.952,0.531,1.11,1.09
		c0.107,0.381,0.119,0.788,0.222,1.171c0.081,0.303-0.008,0.79,0.579,0.688c0.57-0.098,0.4-0.463,0.314-0.815
		c-0.085-0.347-0.143-0.7-0.215-1.051c-0.137-0.674-0.52-1.43,0.615-1.64c0.228-0.042,0.271-0.264,0.201-0.479
		C231.246,129.119,231.053,129.103,231.107,129.099z M211.693,125.135c-0.12,0.172-0.199,0.312-0.305,0.429
		c-0.454,0.505-0.908,1.011-1.378,1.501c-0.29,0.304-0.249,0.527,0.066,0.789c0.342,0.283,0.48,0.024,0.658-0.186
		c0.309-0.366,0.617-0.733,0.929-1.098c0.406-0.473,0.761-1.133,1.486-0.371c0.161,0.17,0.351,0.125,0.509-0.061
		c0.214-0.252,0.102-0.434-0.103-0.605c-0.489-0.412-0.969-0.837-1.474-1.229c-0.253-0.196-0.435-0.711-0.865-0.385
		c-0.5,0.378,0.03,0.586,0.215,0.842C211.521,124.884,211.604,125.007,211.693,125.135z M243.056,119.778
		c-0.044,0.12-0.092,0.274-0.156,0.421c-0.123,0.279,0.008,0.462,0.23,0.594c0.445,0.264,0.891,0.529,1.349,0.769
		c2.011,1.053,1.439,1.361,2.707-0.836c0.138-0.238,0.478-0.551,0.048-0.819c-0.546-0.341-0.632,0.238-0.718,0.487
		c-0.375,1.081-0.964,0.863-1.683,0.385C244.339,120.449,243.797,120.191,243.056,119.778z M232.711,128.578
		c-0.397,0.064-0.542,0.295-0.414,0.673c0.314,0.934,0.645,1.862,0.955,2.797c0.115,0.345,0.336,0.404,0.644,0.304
		c0.379-0.123,0.306-0.371,0.204-0.661c-0.313-0.893-0.597-1.796-0.91-2.688C233.115,128.793,233.036,128.532,232.711,128.578z
		 M205.491,122.087c0.154,0.009,2.976-1.656,3.051-1.815c0.099-0.21,0.018-0.38-0.112-0.544c-0.158-0.199-0.346-0.16-0.527-0.057
		c-0.898,0.519-1.796,1.041-2.69,1.566c-0.19,0.112-0.287,0.282-0.176,0.5C205.125,121.911,205.216,122.102,205.491,122.087z"/>
	<path fill-rule="evenodd" clip-rule="evenodd" fill="#FDFDFC" d="M250.411,109.789c-0.006,1.727-0.168,3.43-0.532,5.117
		c-0.178,0.819-0.56,1.063-1.36,0.771c-0.711-0.259-1.456-0.425-2.185-0.635c-1.676-0.485-1.738-0.587-1.464-2.365
		c0.35-2.264,0.352-4.522-0.065-6.781c-0.588-3.181-1.975-5.978-4.106-8.387c-0.743-0.839-0.765-1.469,0.097-2.197
		c0.608-0.514,1.179-1.087,1.691-1.697c0.697-0.829,1.236-0.744,1.927,0.046C248.454,98.288,250.371,103.686,250.411,109.789z"/>
	<path fill-rule="evenodd" clip-rule="evenodd" fill="#FDFDFC" d="M201.276,109.697c0.088-6,1.944-11.348,5.918-15.9
		c0.957-1.095,1.136-1.089,2.173-0.028c0.777,0.795,1.963,1.424,2.164,2.487c0.208,1.101-1.067,1.753-1.668,2.612
		c-2.901,4.143-3.752,8.734-3.07,13.664c0.271,1.956,0.278,2.012-1.645,2.57c-0.421,0.123-0.845,0.236-1.266,0.359
		c-1.851,0.54-1.924,0.509-2.233-1.354C201.407,112.65,201.262,111.181,201.276,109.697z"/>
	<path fill-rule="evenodd" clip-rule="evenodd" fill="#FCFAF4" d="M225.561,85.121c5.97,0.146,10.881,1.912,15.272,5.187
		c0.733,0.547,0.897,1.058,0.205,1.754c-0.591,0.595-1.189,1.196-1.684,1.869c-0.633,0.861-1.203,0.916-2.087,0.292
		c-7.228-5.1-15.638-5.106-22.894-0.007c-0.893,0.627-1.451,0.574-2.091-0.269c-0.529-0.698-1.155-1.323-1.754-1.967
		c-0.561-0.604-0.489-1.109,0.159-1.598c3.609-2.725,7.615-4.493,12.13-5.022C223.888,85.235,224.964,85.172,225.561,85.121z
		 M215.254,88.328c-0.71,0.23-1.487,0.501-1.939,1.07c-0.313,0.395,0.314,0.894,0.518,1.345c0.212,0.47,0.472,0.926,0.77,1.346
		c0.186,0.261,0.164,0.884,0.81,0.547c0.589-0.307,0.262-0.63,0.08-0.97c-0.107-0.201-0.306-0.4-0.052-0.629
		c0.271-0.244,0.505-0.111,0.742,0.07c0.189,0.146,0.39,0.276,0.592,0.404c0.273,0.174,0.559,0.142,0.761-0.086
		c0.328-0.372-0.119-0.485-0.293-0.601c-0.498-0.331-0.744-0.715-0.769-1.353C216.446,88.804,215.93,88.451,215.254,88.328z
		 M233.194,91.029c0.273-0.654-0.292-1.326,0.323-1.877c0.524-0.47,0.664-1.129,0.258-1.728c-0.464-0.682-1.297-0.792-2.019-0.851
		c-0.797-0.066-0.584,0.799-0.796,1.248c-0.235,0.497-0.356,1.051-0.49,1.589c-0.08,0.322-0.285,0.716,0.222,0.905
		c0.487,0.181,0.612-0.124,0.722-0.513c0.067-0.241,0.079-0.607,0.471-0.577c0.438,0.033,0.422,0.403,0.454,0.714
		C232.393,90.47,232.447,90.993,233.194,91.029z M221.564,88.634c0.006-1.175-0.773-1.988-1.916-2
		c-1.09-0.012-1.975,0.871-1.977,1.97c-0.001,1.139,0.819,1.985,1.941,2.004C220.713,90.626,221.56,89.77,221.564,88.634z
		 M229.419,89.441c-0.281-1.036-0.562-2.073-0.844-3.108c-0.08-0.296-0.246-0.471-0.583-0.494c-0.39-0.026-0.574,0.18-0.722,0.492
		c-0.426,0.899-0.867,1.791-1.29,2.69c-0.09,0.191-0.32,0.436-0.01,0.597c0.143,0.075,0.433,0.055,0.554-0.046
		c0.859-0.717,1.598-0.719,2.256,0.265c0.061,0.089,0.304,0.106,0.447,0.079C229.491,89.864,229.435,89.634,229.419,89.441z
		 M238.575,89.567c-0.357-0.439-0.67-0.635-1.036-0.398c-0.973,0.631-1.394,0.353-1.415-0.768c-0.007-0.38-0.366-0.6-0.66-0.57
		c-0.51,0.052-0.265,0.518-0.204,0.749c0.253,0.96,0.336,1.875-0.286,2.74c-0.165,0.229-0.286,0.497,0.08,0.689
		c0.292,0.153,0.592,0.155,0.691-0.184C236.152,90.439,237.443,90.152,238.575,89.567z M223.976,85.803
		c-0.445,0.066-1.032,0.151-1.618,0.241c-0.213,0.033-0.364,0.132-0.36,0.379c0.003,0.24,0.135,0.405,0.359,0.355
		c1.016-0.222,0.949,0.538,1.035,1.134c0.068,0.47,0.075,0.948,0.117,1.422c0.023,0.256,0.126,0.471,0.421,0.476
		c0.337,0.004,0.514-0.183,0.494-0.521c-0.035-0.593-0.041-1.193-0.137-1.777c-0.091-0.558-0.214-1.042,0.635-0.963
		c0.264,0.025,0.463-0.127,0.44-0.427c-0.025-0.331-0.285-0.318-0.525-0.319C224.6,85.802,224.362,85.803,223.976,85.803z"/>
	<path fill-rule="evenodd" clip-rule="evenodd" fill="#FDFDFC" d="M243.368,109.74c-0.012,1.85-0.345,3.649-0.811,5.433
		c-0.225,0.859-0.57,1.167-1.413,0.581c-2.494-1.732-5.021-3.417-7.521-5.142c-0.926-0.639-0.909-1.188,0.033-1.834
		c2.438-1.671,4.884-3.332,7.338-4.981c1.062-0.714,1.266-0.634,1.603,0.625C243.064,106.162,243.387,107.927,243.368,109.74z"/>
	<path fill-rule="evenodd" clip-rule="evenodd" fill="#FDFDFC" d="M228.278,93.48c-0.095-0.864,0.099-1.252,1.133-0.997
		c3.715,0.921,6.865,2.758,9.517,5.507c0.659,0.684,0.638,1.073-0.252,1.49c-2.711,1.273-5.394,2.606-8.099,3.892
		c-1.099,0.521-1.55,0.292-1.635-0.808C228.708,99.537,228.498,96.508,228.278,93.48z"/>
	<path fill-rule="evenodd" clip-rule="evenodd" fill="#FDFDFC" d="M209.823,103.383c0.159,0.086,0.378,0.182,0.572,0.313
		c2.546,1.724,5.097,3.44,7.626,5.188c0.908,0.627,0.919,1.142,0.031,1.757c-2.527,1.751-5.082,3.462-7.619,5.199
		c-0.671,0.459-1.079,0.339-1.314-0.458c-1.104-3.74-1.093-7.478,0.007-11.214C209.223,103.842,209.285,103.44,209.823,103.383z"/>
	<path fill-rule="evenodd" clip-rule="evenodd" fill="#FDFDFC" d="M228.3,125.729c0.215-2.904,0.427-5.809,0.646-8.713
		c0.093-1.249,0.495-1.53,1.592-1.012c2.739,1.295,5.457,2.634,8.188,3.945c0.756,0.362,0.931,0.748,0.276,1.425
		c-2.618,2.709-5.723,4.57-9.382,5.483C228.384,127.166,228.196,126.994,228.3,125.729z"/>
	<path fill-rule="evenodd" clip-rule="evenodd" fill="#FDFDFC" d="M223.351,93.539c-0.211,2.986-0.418,5.971-0.635,8.957
		c-0.088,1.208-0.54,1.511-1.638,0.99c-2.775-1.317-5.528-2.683-8.291-4.027c-0.677-0.329-0.755-0.708-0.214-1.278
		c2.655-2.796,5.844-4.667,9.581-5.611C222.989,92.358,223.513,92.537,223.351,93.539z"/>
	<path fill-rule="evenodd" clip-rule="evenodd" fill="#FDFDFC" d="M223.423,124.692c0.126,2.683,0.128,2.676-1.871,2.108
		c-3.345-0.949-6.212-2.688-8.617-5.19c-0.841-0.874-0.811-1.074,0.302-1.624c2.612-1.29,5.229-2.573,7.854-3.839
		c1.204-0.58,1.599-0.392,1.722,0.922C223.068,119.811,223.255,122.559,223.423,124.692z"/>
	<path fill-rule="evenodd" clip-rule="evenodd" fill="#FCF4E7" d="M231.888,109.772c0.012,3.396-2.649,6.094-6.032,6.112
		c-3.427,0.019-6.258-2.763-6.225-6.117c0.032-3.323,2.819-6.125,6.109-6.143C229.164,103.605,231.877,106.318,231.888,109.772z
		 M225.738,104.234c-3.104,0.023-5.5,2.473-5.479,5.599c0.021,3.061,2.551,5.549,5.604,5.515c3.055-0.034,5.497-2.546,5.486-5.642
		C231.339,106.645,228.842,104.211,225.738,104.234z"/>
	<path fill-rule="evenodd" clip-rule="evenodd" fill="#FCFDFD" d="M93.505,115.016c0-0.799,0.037-1.599-0.011-2.395
		c-0.044-0.734,0.161-1.113,0.976-1.11c1.394,0.007,2.787-0.153,4.182-0.011c1.989,0.201,3.289,1.52,3.345,3.402
		c0.057,1.899-1.129,3.267-3.111,3.619c-1.591,0.284-3.18,0.097-4.771,0.038c-0.553-0.02-0.625-0.338-0.615-0.79
		C93.519,116.852,93.505,115.934,93.505,115.016z"/>
	<path fill-rule="evenodd" clip-rule="evenodd" fill="#FCFDFD" d="M149.758,126.116c0.002,2.065,0.003,2.068-2.051,2.402
		c-0.553,0.09-1.106,0.176-1.663,0.225c-1.418,0.124-2.131-0.384-2.332-1.632c-0.243-1.498,0.264-2.47,1.642-2.712
		c1.289-0.227,2.621-0.207,3.932-0.33c0.423-0.039,0.469,0.182,0.471,0.487C149.759,125.076,149.757,125.597,149.758,126.116z"/>
	<path fill-rule="evenodd" clip-rule="evenodd" fill="#FCFDFD" d="M120.598,122.974c-0.05,1.199-0.041,2.115-0.298,3.014
		c-0.541,1.893-1.63,2.653-3.75,2.569c-1.892-0.074-2.93-0.962-3.288-2.843c-0.348-1.825-0.348-3.658,0.028-5.477
		c0.369-1.78,1.422-2.614,3.295-2.696c1.964-0.087,3.116,0.664,3.66,2.393c0.083,0.266,0.175,0.537,0.199,0.811
		C120.518,121.58,120.561,122.417,120.598,122.974z"/>
	<path fill-rule="evenodd" clip-rule="evenodd" fill="#FCFDFD" d="M180.356,91.594c-0.678,0-1.36-0.056-2.031,0.013
		c-1.168,0.12-1.14-0.422-0.817-1.262c0.609-1.586,1.731-2.311,3.422-2.15c1.352,0.128,2.15,1.038,2.396,2.688
		c0.071,0.48,0.011,0.751-0.577,0.721C181.952,91.563,181.154,91.594,180.356,91.594z"/>
	<path fill-rule="evenodd" clip-rule="evenodd" fill="#FCFDFD" d="M108.968,91.594c-0.719,0-1.439-0.033-2.156,0.01
		c-0.702,0.042-0.76-0.182-0.587-0.828c0.493-1.843,1.68-2.749,3.558-2.584c1.387,0.121,2.524,1.587,2.358,2.952
		c-0.06,0.495-0.342,0.448-0.656,0.449C110.646,91.596,109.807,91.593,108.968,91.594z"/>
	<path fill-rule="evenodd" clip-rule="evenodd" fill="#FCFDFD" d="M88.81,92.326c1.774-0.001,1.774-0.001,1.481,1.635
		c-0.379,2.115-1.744,3.093-3.712,2.686c-0.941-0.194-1.503-0.771-1.585-1.692c-0.073-0.823,0.189-1.536,1.021-1.976
		C87.003,92.456,88.061,92.386,88.81,92.326z"/>
	<path fill-rule="evenodd" clip-rule="evenodd" fill="#FCFDFD" d="M47.708,92.325c1.84,0,1.84,0,1.558,1.464
		c-0.437,2.272-1.551,3.17-3.552,2.885c-0.994-0.141-1.627-0.715-1.755-1.673c-0.117-0.873,0.2-1.624,1.075-2.062
		C46.026,92.443,47.085,92.358,47.708,92.325z"/>
	<path fill-rule="evenodd" clip-rule="evenodd" fill="#FCF4E7" d="M249.596,133.354c1.063-0.874,2.372-0.796,3.108,0.186
		c0.795,1.061,0.62,2.194-0.455,2.95l-0.013-0.014c-0.179-0.712-0.771-1.327-0.133-2.188c0.281-0.379-0.298-0.834-0.83-0.878
		c-0.549-0.045-1.103-0.025-1.654-0.035L249.596,133.354z"/>
	<path fill-rule="evenodd" clip-rule="evenodd" fill="#FCF4E7" d="M252.249,136.49c-0.876,0.775-1.62,0.772-2.646-0.013
		l-0.016,0.013c0.367-0.072,0.819-0.021,0.778-0.625c-0.015-0.212-0.065-0.522,0.274-0.539c0.261-0.013,0.422,0.226,0.516,0.431
		c0.219,0.474,0.533,0.761,1.081,0.72L252.249,136.49z"/>
	<path fill-rule="evenodd" clip-rule="evenodd" fill="#FCFAF4" d="M249.352,136.243c-0.774-1.2-0.714-1.917,0.244-2.888
		c0-0.001,0.023,0.02,0.022,0.02c0.008,0.956,0.017,1.913,0.025,2.87C249.546,136.245,249.449,136.244,249.352,136.243z"/>
	<path fill-rule="evenodd" clip-rule="evenodd" fill="#FCF4E7" d="M249.352,136.243c0.098,0.001,0.194,0.002,0.292,0.002
		c-0.02,0.082-0.038,0.164-0.057,0.245l0.016-0.013C249.519,136.399,249.436,136.321,249.352,136.243z"/>
	<path fill-rule="evenodd" clip-rule="evenodd" fill="#F9AA2B" d="M209.113,123.593c0.627-0.014,0.982-1.419,1.576-0.591
		c0.445,0.62-0.727,0.893-1.118,1.369c-0.325,0.395-0.764,0.697-1.156,1.035c-0.209,0.181-0.426,0.415-0.714,0.135
		c-0.204-0.199-0.354-0.422-0.245-0.743c0.213-0.63,0.406-1.267,0.624-1.952c-0.574,0.015-0.845,0.395-1.204,0.603
		c-0.265,0.153-0.502,0.432-0.801,0.022c-0.294-0.404-0.014-0.556,0.263-0.74c0.761-0.509,1.515-1.029,2.278-1.535
		c0.183-0.121,0.368-0.372,0.618-0.176c0.226,0.179,0.351,0.435,0.261,0.743c-0.167,0.571-0.336,1.142-0.504,1.712
		c-0.109,0.067-0.181,0.146-0.041,0.244C208.968,123.73,209.057,123.638,209.113,123.593z"/>
	<path fill-rule="evenodd" clip-rule="evenodd" fill="#F9AA2B" d="M221.718,131.197c-0.176,0.757-0.266,1.143-0.356,1.527
		c-0.072,0.308-0.1,0.671-0.575,0.553c-0.43-0.107-0.392-0.381-0.3-0.735c0.227-0.884,0.401-1.781,0.614-2.669
		c0.061-0.253,0.073-0.587,0.479-0.558c0.314,0.022,0.486,0.222,0.618,0.488c0.275,0.556,0.389,1.197,0.926,1.753
		c0.076-0.541,0.128-0.991,0.206-1.437c0.046-0.265,0.21-0.419,0.501-0.384c0.335,0.041,0.327,0.294,0.305,0.531
		c-0.093,0.948-0.193,1.896-0.296,2.844c-0.025,0.236-0.052,0.504-0.362,0.521c-0.314,0.018-0.632,0.02-0.796-0.361
		C222.422,132.67,222.132,132.082,221.718,131.197z"/>
	<path fill-rule="evenodd" clip-rule="evenodd" fill="#F9AA2B" d="M240.619,125.974c-0.202-0.599-0.619-0.857-0.914-1.21
		c-0.187-0.224-0.19-0.409,0.008-0.622c0.232-0.252,0.408-0.134,0.592,0.058c0.66,0.691,1.33,1.372,1.979,2.074
		c0.172,0.187,0.476,0.389,0.256,0.707c-0.223,0.322-0.541,0.441-0.941,0.307c-0.524-0.177-1.059-0.328-1.691-0.522
		c-0.136,0.618,0.368,0.854,0.56,1.214c0.128,0.24,0.367,0.445,0.041,0.714c-0.363,0.3-0.563,0.072-0.767-0.205
		c-0.518-0.706-1.05-1.402-1.558-2.115c-0.146-0.205-0.46-0.397-0.22-0.716c0.227-0.302,0.555-0.28,0.873-0.194
		C239.401,125.615,239.964,125.784,240.619,125.974z"/>
	<path fill-rule="evenodd" clip-rule="evenodd" fill="#F8AD32" d="M228.281,133.213c-0.141,0.534-0.49,0.503-0.727,0.294
		c-0.794-0.703-1.491-0.73-2.188,0.125c-0.086,0.105-0.384,0.122-0.541,0.064c-0.235-0.085-0.155-0.316-0.092-0.509
		c0.335-1.015,0.648-2.038,1.008-3.045c0.209-0.585,0.832-0.564,1.027-0.218C227.366,130.987,227.803,132.141,228.281,133.213z"/>
	<path fill-rule="evenodd" clip-rule="evenodd" fill="#F9AA2B" d="M218.843,132.678c-0.604-0.033-0.456-0.553-0.576-0.894
		c-0.123-0.35,0.163-0.891-0.358-1.039c-0.59-0.168-0.55,0.434-0.711,0.747c-0.166,0.321-0.345,0.566-0.73,0.368
		c-0.345-0.177-0.209-0.459-0.096-0.722c0.237-0.549,0.473-1.099,0.706-1.65c0.568-1.345,1.527-1.562,2.625-0.568
		c0.486,0.44,0.585,1.08,0.144,1.496c-0.579,0.546-0.809,1.105-0.697,1.861C219.178,132.478,219.113,132.675,218.843,132.678z
		 M219.242,129.8c-0.011-0.4-0.342-0.446-0.633-0.542c-0.326-0.107-0.561,0.011-0.616,0.332c-0.078,0.456,0.358,0.439,0.612,0.557
		C218.924,130.292,219.118,130.104,219.242,129.8z"/>
	<path fill-rule="evenodd" clip-rule="evenodd" fill="#F8AD32" d="M215.004,129.269c-0.396,0.015-0.877-0.928-1.225-0.074
		c-0.309,0.754,0.674,0.656,0.998,1.027c0.187,0.215,0.454,0.354,0.251,0.679c-0.237,0.382-0.479,0.082-0.703-0.028
		c-2.151-1.053-2.15-1.055-0.837-2.971c0.022-0.033,0.046-0.064,0.068-0.098c1.088-1.583,1.457-1.619,2.952-0.335
		c0.209,0.179,0.347,0.312,0.184,0.579c-0.17,0.28-0.379,0.206-0.606,0.083c-0.21-0.114-0.431-0.208-0.643-0.316
		c-0.241-0.123-0.494-0.36-0.733-0.038c-0.332,0.448,0.15,0.516,0.366,0.686c0.214,0.167,0.538,0.266,0.358,0.63
		C215.369,129.225,215.233,129.343,215.004,129.269z"/>
	<path fill-rule="evenodd" clip-rule="evenodd" fill="#F9AA2B" d="M238.315,129.034c0.027,1.11-0.804,1.96-1.937,1.979
		c-1.141,0.019-2.008-0.79-2.038-1.901c-0.029-1.055,0.886-1.989,1.956-1.996C237.423,127.109,238.288,127.931,238.315,129.034z
		 M237.555,129.069c-0.144-0.686-0.479-1.232-1.246-1.194c-0.66,0.033-1.127,0.439-1.122,1.157c0.005,0.761,0.452,1.194,1.202,1.184
		C237.087,130.206,237.438,129.74,237.555,129.069z"/>
	<path fill-rule="evenodd" clip-rule="evenodd" fill="#F9AA2B" d="M243.13,126.086c-0.045-0.067-0.114-0.162-0.176-0.262
		c-0.557-0.917-1.153-1.813-1.653-2.762c-0.32-0.605,0.124-1.109,0.815-0.924c0.996,0.269,1.97,0.621,2.948,0.953
		c0.167,0.057,0.435,0.101,0.366,0.367c-0.059,0.228-0.199,0.458-0.485,0.444c-1.137-0.054-1.337,0.646-1.294,1.565
		C243.666,125.772,243.535,125.99,243.13,126.086z M242.988,124.208c0.232-0.25,0.656-0.432,0.443-0.75
		c-0.175-0.261-0.603-0.345-1.073-0.243C242.599,123.594,242.781,123.881,242.988,124.208z"/>
	<path fill-rule="evenodd" clip-rule="evenodd" fill="#F8AD32" d="M231.107,129.099c-0.055,0.004,0.139,0.021,0.217,0.259
		c0.07,0.216,0.026,0.438-0.201,0.479c-1.135,0.21-0.752,0.966-0.615,1.64c0.072,0.351,0.13,0.704,0.215,1.051
		c0.086,0.353,0.256,0.718-0.314,0.815c-0.587,0.102-0.498-0.386-0.579-0.688c-0.103-0.383-0.114-0.79-0.222-1.171
		c-0.158-0.559,0.023-1.491-1.11-1.09c-0.222,0.078-0.365-0.127-0.41-0.335c-0.052-0.238,0.106-0.391,0.308-0.433
		C229.21,129.454,230.031,129.306,231.107,129.099z"/>
	<path fill-rule="evenodd" clip-rule="evenodd" fill="#F9AA2B" d="M211.693,125.135c-0.089-0.128-0.173-0.251-0.261-0.373
		c-0.185-0.256-0.715-0.464-0.215-0.842c0.431-0.326,0.612,0.188,0.865,0.385c0.505,0.392,0.984,0.816,1.474,1.229
		c0.204,0.172,0.316,0.354,0.103,0.605c-0.158,0.186-0.348,0.23-0.509,0.061c-0.726-0.762-1.08-0.102-1.486,0.371
		c-0.312,0.364-0.62,0.731-0.929,1.098c-0.178,0.21-0.316,0.469-0.658,0.186c-0.315-0.262-0.356-0.485-0.066-0.789
		c0.47-0.49,0.924-0.996,1.378-1.501C211.494,125.446,211.573,125.307,211.693,125.135z"/>
	<path fill-rule="evenodd" clip-rule="evenodd" fill="#F8AD32" d="M243.056,119.778c0.741,0.413,1.283,0.671,1.777,1
		c0.719,0.479,1.308,0.696,1.683-0.385c0.086-0.249,0.172-0.828,0.718-0.487c0.43,0.269,0.09,0.581-0.048,0.819
		c-1.268,2.197-0.696,1.889-2.707,0.836c-0.458-0.239-0.903-0.505-1.349-0.769c-0.223-0.132-0.354-0.314-0.23-0.594
		C242.964,120.053,243.012,119.898,243.056,119.778z"/>
	<path fill-rule="evenodd" clip-rule="evenodd" fill="#F9AA2B" d="M232.712,128.578c0.324-0.046,0.403,0.215,0.478,0.424
		c0.313,0.893,0.598,1.796,0.91,2.688c0.102,0.29,0.175,0.538-0.204,0.661c-0.308,0.101-0.528,0.041-0.644-0.304
		c-0.311-0.935-0.641-1.863-0.955-2.797C232.169,128.873,232.313,128.643,232.712,128.578z"/>
	<path fill-rule="evenodd" clip-rule="evenodd" fill="#F9AA2B" d="M205.491,122.087c-0.275,0.015-0.366-0.176-0.455-0.35
		c-0.111-0.218-0.015-0.388,0.176-0.5c0.895-0.525,1.792-1.048,2.69-1.566c0.182-0.104,0.369-0.143,0.527,0.057
		c0.13,0.164,0.211,0.334,0.112,0.544C208.467,120.431,205.646,122.096,205.491,122.087z"/>
	<path fill-rule="evenodd" clip-rule="evenodd" fill="#F9AA2B" d="M215.254,88.328c0.676,0.123,1.192,0.476,1.219,1.143
		c0.024,0.637,0.271,1.021,0.769,1.353c0.174,0.115,0.621,0.229,0.293,0.601c-0.202,0.228-0.487,0.26-0.761,0.086
		c-0.202-0.128-0.402-0.258-0.592-0.404c-0.237-0.182-0.472-0.314-0.742-0.07c-0.254,0.229-0.056,0.428,0.052,0.629
		c0.182,0.34,0.509,0.663-0.08,0.97c-0.646,0.337-0.624-0.286-0.81-0.547c-0.298-0.42-0.558-0.876-0.77-1.346
		c-0.203-0.451-0.831-0.95-0.518-1.345C213.767,88.829,214.544,88.559,215.254,88.328z M214.981,90.32
		c0.293-0.124,0.61-0.233,0.59-0.638c-0.014-0.258-0.131-0.516-0.422-0.42c-0.302,0.099-0.756,0.154-0.651,0.665
		C214.546,90.159,214.663,90.382,214.981,90.32z"/>
	<path fill-rule="evenodd" clip-rule="evenodd" fill="#F9AA2B" d="M233.194,91.029c-0.747-0.037-0.802-0.56-0.855-1.089
		c-0.032-0.312-0.016-0.681-0.454-0.714c-0.392-0.03-0.403,0.336-0.471,0.577c-0.109,0.389-0.234,0.694-0.722,0.513
		c-0.507-0.189-0.302-0.583-0.222-0.905c0.134-0.539,0.255-1.093,0.49-1.589c0.212-0.449-0.001-1.314,0.796-1.248
		c0.722,0.06,1.555,0.169,2.019,0.851c0.406,0.599,0.267,1.257-0.258,1.728C232.902,89.703,233.468,90.375,233.194,91.029z
		 M233.055,88.116c-0.006-0.41-0.328-0.492-0.626-0.566c-0.336-0.083-0.511,0.104-0.556,0.424c-0.063,0.454,0.279,0.499,0.587,0.543
		C232.761,88.561,232.996,88.46,233.055,88.116z"/>
	<path fill-rule="evenodd" clip-rule="evenodd" fill="#F8AD32" d="M221.564,88.634c-0.005,1.136-0.852,1.992-1.951,1.973
		c-1.122-0.019-1.942-0.865-1.941-2.004c0.002-1.099,0.887-1.981,1.977-1.97C220.791,86.646,221.57,87.459,221.564,88.634z
		 M219.695,89.741c0.659-0.042,1.096-0.395,1.107-1.107c0.013-0.776-0.438-1.17-1.202-1.158c-0.737,0.011-1.097,0.463-1.076,1.154
		C218.546,89.312,218.911,89.743,219.695,89.741z"/>
	<path fill-rule="evenodd" clip-rule="evenodd" fill="#F9AA2B" d="M229.419,89.442c0.016,0.192,0.072,0.422-0.191,0.474
		c-0.144,0.028-0.387,0.011-0.447-0.079c-0.658-0.983-1.396-0.981-2.256-0.265c-0.121,0.101-0.411,0.121-0.554,0.046
		c-0.311-0.161-0.08-0.406,0.01-0.597c0.423-0.899,0.864-1.791,1.29-2.69c0.147-0.313,0.332-0.519,0.722-0.492
		c0.337,0.023,0.503,0.198,0.583,0.494C228.857,87.369,229.138,88.405,229.419,89.442z M227.885,87.016
		c-0.229,0.508-0.639,0.797-0.453,1.271c0.039,0.101,0.544,0.172,0.639,0.072C228.465,87.942,228.024,87.576,227.885,87.016z"/>
	<path fill-rule="evenodd" clip-rule="evenodd" fill="#F8AD32" d="M238.575,89.567c-1.132,0.585-2.423,0.872-2.83,2.257
		c-0.1,0.338-0.399,0.337-0.691,0.184c-0.366-0.192-0.245-0.459-0.08-0.689c0.622-0.864,0.539-1.779,0.286-2.74
		c-0.061-0.23-0.306-0.697,0.204-0.749c0.294-0.03,0.653,0.189,0.66,0.57c0.021,1.121,0.442,1.399,1.415,0.768
		C237.905,88.932,238.218,89.128,238.575,89.567z"/>
	<path fill-rule="evenodd" clip-rule="evenodd" fill="#F9AA2B" d="M223.976,85.803c0.387,0,0.624-0.001,0.861,0
		c0.24,0,0.5-0.012,0.525,0.319c0.022,0.3-0.177,0.452-0.44,0.427c-0.849-0.08-0.726,0.405-0.635,0.963
		c0.096,0.584,0.102,1.184,0.137,1.777c0.02,0.338-0.157,0.525-0.494,0.521c-0.295-0.004-0.397-0.219-0.421-0.476
		c-0.042-0.474-0.049-0.952-0.117-1.422c-0.086-0.596-0.02-1.356-1.035-1.134c-0.225,0.049-0.356-0.115-0.359-0.355
		c-0.004-0.247,0.147-0.346,0.36-0.379C222.943,85.954,223.53,85.869,223.976,85.803z"/>
	<path fill-rule="evenodd" clip-rule="evenodd" fill="#F9A620" d="M225.738,104.234c3.104-0.023,5.601,2.411,5.612,5.472
		c0.011,3.096-2.432,5.607-5.486,5.642c-3.054,0.034-5.583-2.454-5.604-5.515C220.238,106.707,222.635,104.258,225.738,104.234z
		 M229.475,110.295c0.024-1.977-0.707-3.012-1.944-3.704c-0.39-0.218-0.762-0.333-0.867-0.862c-0.127-0.632-0.698-0.356-1.097-0.406
		c-0.406-0.051-0.731,0.046-0.706,0.549c0.032,0.617-0.522,0.634-0.863,0.849c-1.531,0.966-2.137,2.713-1.496,4.377
		c0.623,1.619,2.401,2.627,4.041,2.29C228.267,113.035,229.474,111.555,229.475,110.295z"/>
	<path fill-rule="evenodd" clip-rule="evenodd" fill="#F8AD32" d="M249.587,136.49c0.019-0.081,0.037-0.163,0.057-0.245
		c-0.009-0.957-0.018-1.914-0.025-2.87c0.553,0.01,1.106-0.01,1.655,0.035c0.532,0.044,1.111,0.499,0.83,0.878
		c-0.638,0.861-0.046,1.477,0.133,2.188c-0.548,0.041-0.862-0.246-1.081-0.72c-0.094-0.205-0.255-0.443-0.516-0.431
		c-0.34,0.017-0.289,0.327-0.274,0.539C250.406,136.47,249.954,136.418,249.587,136.49z M250.626,134.664
		c0.483,0.035,0.718-0.056,0.757-0.329c0.045-0.327-0.24-0.366-0.474-0.386c-0.239-0.021-0.504-0.016-0.527,0.319
		C250.359,134.585,250.586,134.66,250.626,134.664z"/>
	<path fill-rule="evenodd" clip-rule="evenodd" fill="#FCF9F2" d="M209.113,123.593c-0.057,0.045-0.146,0.138-0.163,0.126
		c-0.14-0.098-0.068-0.177,0.041-0.244C209.032,123.514,209.072,123.553,209.113,123.593z"/>
	<path fill-rule="evenodd" clip-rule="evenodd" fill="#FCF4E7" d="M219.242,129.8c-0.124,0.305-0.318,0.492-0.637,0.347
		c-0.254-0.117-0.69-0.101-0.612-0.557c0.056-0.321,0.29-0.439,0.616-0.332C218.9,129.354,219.231,129.399,219.242,129.8z"/>
	<path fill-rule="evenodd" clip-rule="evenodd" fill="#FCF9F2" d="M237.555,129.069c-0.116,0.671-0.468,1.137-1.166,1.146
		c-0.75,0.011-1.197-0.423-1.202-1.184c-0.005-0.718,0.462-1.124,1.122-1.157C237.075,127.837,237.411,128.384,237.555,129.069z"/>
	<path fill-rule="evenodd" clip-rule="evenodd" fill="#FCF4E7" d="M242.988,124.208c-0.207-0.327-0.39-0.614-0.63-0.993
		c0.471-0.102,0.898-0.018,1.073,0.243C243.645,123.776,243.221,123.958,242.988,124.208z"/>
	<path fill-rule="evenodd" clip-rule="evenodd" fill="#FCF4E7" d="M214.981,90.32c-0.318,0.062-0.436-0.161-0.483-0.394
		c-0.104-0.511,0.35-0.566,0.651-0.665c0.291-0.095,0.408,0.162,0.422,0.42C215.592,90.087,215.274,90.196,214.981,90.32z"/>
	<path fill-rule="evenodd" clip-rule="evenodd" fill="#FCF4E7" d="M233.055,88.118c-0.059,0.343-0.294,0.443-0.595,0.399
		c-0.308-0.045-0.65-0.089-0.587-0.543c0.045-0.319,0.22-0.507,0.556-0.424C232.727,87.624,233.049,87.706,233.055,88.118z"/>
	<path fill-rule="evenodd" clip-rule="evenodd" fill="#FCF9F2" d="M219.695,89.741c-0.784,0.001-1.149-0.429-1.171-1.112
		c-0.021-0.69,0.339-1.143,1.076-1.154c0.764-0.012,1.215,0.382,1.202,1.158C220.791,89.347,220.354,89.699,219.695,89.741z"/>
	<path fill-rule="evenodd" clip-rule="evenodd" fill="#FCF4E7" d="M227.885,87.016c0.14,0.56,0.58,0.926,0.186,1.343
		c-0.095,0.1-0.6,0.028-0.639-0.072C227.246,87.813,227.656,87.524,227.885,87.016z"/>
	<path fill-rule="evenodd" clip-rule="evenodd" fill="#FDFDFC" d="M229.475,110.295c-0.001,1.26-1.208,2.74-2.933,3.094
		c-1.64,0.337-3.418-0.671-4.041-2.29c-0.641-1.664-0.035-3.411,1.496-4.377c0.341-0.215,0.896-0.232,0.863-0.849
		c-0.025-0.502,0.3-0.6,0.706-0.549c0.398,0.05,0.97-0.227,1.097,0.406c0.105,0.529,0.478,0.645,0.867,0.862
		C228.768,107.283,229.499,108.318,229.475,110.295z"/>
	<path fill-rule="evenodd" clip-rule="evenodd" fill="#FCF4E7" d="M250.626,134.664c-0.04-0.004-0.267-0.079-0.244-0.396
		c0.023-0.335,0.288-0.34,0.527-0.319c0.233,0.02,0.519,0.059,0.474,0.386C251.344,134.608,251.109,134.699,250.626,134.664z"/>
</g>
</svg>
