<svg xmlns="http://www.w3.org/2000/svg" viewBox="0 0 100 100" role="img" aria-label="Rotary wheel"><g fill="#F7A81B"><polygon points="89.77,54.32 97.37,53.48 97.37,46.52 89.77,45.68"/><polygon points="87.29,64.46 94.86,65.62 96.66,58.90 89.53,56.12"/><polygon points="82.28,73.62 89.29,76.70 92.77,70.67 86.60,66.14"/><polygon points="75.06,81.17 81.04,85.96 85.96,81.04 81.17,75.06"/><polygon points="66.14,86.60 70.67,92.77 76.70,89.29 73.62,82.28"/><polygon points="56.12,89.53 58.90,96.66 65.62,94.86 64.46,87.29"/><polygon points="45.68,89.77 46.52,97.37 53.48,97.37 54.32,89.77"/><polygon points="35.54,87.29 34.38,94.86 41.10,96.66 43.88,89.53"/><polygon points="26.38,82.28 23.30,89.29 29.33,92.77 33.86,86.60"/><polygon points="18.83,75.06 14.04,81.04 18.96,85.96 24.94,81.17"/><polygon points="13.40,66.14 7.23,70.67 10.71,76.70 17.72,73.62"/><polygon points="10.47,56.12 3.34,58.90 5.14,65.62 12.71,64.46"/><polygon points="10.23,45.68 2.63,46.52 2.63,53.48 10.23,54.32"/><polygon points="12.71,35.54 5.14,34.38 3.34,41.10 10.47,43.88"/><polygon points="17.72,26.38 10.71,23.30 7.23,29.33 13.40,33.86"/><polygon points="24.94,18.83 18.96,14.04 14.04,18.96 18.83,24.94"/><polygon points="33.86,13.40 29.33,7.23 23.30,10.71 26.38,17.72"/><polygon points="43.88,10.47 41.10,3.34 34.38,5.14 35.54,12.71"/><polygon points="54.32,10.23 53.48,2.63 46.52,2.63 45.68,10.23"/><polygon points="64.46,12.71 65.62,5.14 58.90,3.34 56.12,10.47"/><polygon points="73.62,17.72 76.70,10.71 70.67,7.23 66.14,13.40"/><polygon points="81.17,24.94 85.96,18.96 81.04,14.04 75.06,18.83"/><polygon points="86.60,33.86 92.77,29.33 89.29,23.30 82.28,26.38"/><polygon points="89.53,43.88 96.66,41.10 94.86,34.38 87.29,35.54"/></g><circle cx="50" cy="50" r="40" fill="none" stroke="#F7A81B" stroke-width="7"/><g fill="#F7A81B"><rect x="47.4" y="14" width="5.2" height="34" rx="1.6" transform="rotate(0.0 50 50)"/><rect x="47.4" y="14" width="5.2" height="34" rx="1.6" transform="rotate(60.0 50 50)"/><rect x="47.4" y="14" width="5.2" height="34" rx="1.6" transform="rotate(120.0 50 50)"/><rect x="47.4" y="14" width="5.2" height="34" rx="1.6" transform="rotate(180.0 50 50)"/><rect x="47.4" y="14" width="5.2" height="34" rx="1.6" transform="rotate(240.0 50 50)"/><rect x="47.4" y="14" width="5.2" height="34" rx="1.6" transform="rotate(300.0 50 50)"/></g><circle cx="50" cy="50" r="12" fill="#F7A81B"/><circle cx="50" cy="50" r="12" fill="none" stroke="#E2961A" stroke-width="1.2"/><g fill="#17458F"><circle cx="50" cy="46.5" r="2.6"/><rect x="48.6" y="46.5" width="2.8" height="7" rx="1.2"/></g></svg>